<?xml version="1.0" encoding="UTF-8" standalone="no"?><svg xmlns="http://www.w3.org/2000/svg" xmlns:xlink="http://www.w3.org/1999/xlink" contentScriptType="application/ecmascript" contentStyleType="text/css" height="238px" preserveAspectRatio="none" style="width:579px;height:238px;" version="1.1" viewBox="0 0 579 238" width="579px" zoomAndPan="magnify"><defs><filter height="300%" id="f1dmjjwd5tgzli" width="300%" x="-1" y="-1"><feGaussianBlur result="blurOut" stdDeviation="2.0"/><feColorMatrix in="blurOut" result="blurOut2" type="matrix" values="0 0 0 0 0 0 0 0 0 0 0 0 0 0 0 0 0 0 .4 0"/><feOffset dx="4.0" dy="4.0" in="blurOut2" result="blurOut3"/><feBlend in="SourceGraphic" in2="blurOut3" mode="normal"/></filter></defs><g><!--cluster rat bastard sword--><polygon fill="#FFFFFF" filter="url(#f1dmjjwd5tgzli)" points="406,155,540,155,547,177.4883,550,177.4883,550,226,406,226,406,155" style="stroke: #000000; stroke-width: 1.5;"/><line style="stroke: #000000; stroke-width: 1.5;" x1="406" x2="547" y1="177.4883" y2="177.4883"/><text fill="#000000" font-family="sans-serif" font-size="14" font-weight="bold" lengthAdjust="spacingAndGlyphs" textLength="128" x="410" y="170.5352">rat bastard sword</text><!--cluster character1--><polygon fill="#FFFFFF" filter="url(#f1dmjjwd5tgzli)" points="113,59,193,59,200,81.4883,394,81.4883,394,130,113,130,113,59" style="stroke: #000000; stroke-width: 1.5;"/><line style="stroke: #000000; stroke-width: 1.5;" x1="113" x2="200" y1="81.4883" y2="81.4883"/><text fill="#000000" font-family="sans-serif" font-size="14" font-weight="bold" lengthAdjust="spacingAndGlyphs" textLength="74" x="117" y="74.5352">character1</text><!--entity container--><rect fill="#FEFECE" filter="url(#f1dmjjwd5tgzli)" height="36.4883" style="stroke: #A80036; stroke-width: 1.5;" width="85" x="418.5" y="182"/><rect fill="#FEFECE" height="5" style="stroke: #A80036; stroke-width: 1.5;" width="10" x="413.5" y="187"/><rect fill="#FEFECE" height="5" style="stroke: #A80036; stroke-width: 1.5;" width="10" x="413.5" y="208.4883"/><text fill="#000000" font-family="sans-serif" font-size="14" lengthAdjust="spacingAndGlyphs" textLength="65" x="428.5" y="205.5352">container</text><!--entity legs--><rect fill="#FEFECE" filter="url(#f1dmjjwd5tgzli)" height="36.4883" style="stroke: #A80036; stroke-width: 1.5;" width="48" x="212" y="86"/><rect fill="#FEFECE" height="5" style="stroke: #A80036; stroke-width: 1.5;" width="10" x="207" y="91"/><rect fill="#FEFECE" height="5" style="stroke: #A80036; stroke-width: 1.5;" width="10" x="207" y="112.4883"/><text fill="#000000" font-family="sans-serif" font-size="14" lengthAdjust="spacingAndGlyphs" textLength="28" x="222" y="109.5352">legs</text><!--entity torso--><rect fill="#FEFECE" filter="url(#f1dmjjwd5tgzli)" height="36.4883" style="stroke: #A80036; stroke-width: 1.5;" width="56" x="330" y="86"/><rect fill="#FEFECE" height="5" style="stroke: #A80036; stroke-width: 1.5;" width="10" x="325" y="91"/><rect fill="#FEFECE" height="5" style="stroke: #A80036; stroke-width: 1.5;" width="10" x="325" y="112.4883"/><text fill="#000000" font-family="sans-serif" font-size="14" lengthAdjust="spacingAndGlyphs" textLength="36" x="340" y="109.5352">torso</text><!--entity hand--><rect fill="#FEFECE" filter="url(#f1dmjjwd5tgzli)" height="36.4883" style="stroke: #A80036; stroke-width: 1.5;" width="55" x="121.5" y="86"/><rect fill="#FEFECE" height="5" style="stroke: #A80036; stroke-width: 1.5;" width="10" x="116.5" y="91"/><rect fill="#FEFECE" height="5" style="stroke: #A80036; stroke-width: 1.5;" width="10" x="116.5" y="112.4883"/><text fill="#000000" font-family="sans-serif" font-size="14" lengthAdjust="spacingAndGlyphs" textLength="35" x="131.5" y="109.5352">hand</text><!--entity shirt--><rect fill="#FEFECE" filter="url(#f1dmjjwd5tgzli)" height="36.4883" style="stroke: #A80036; stroke-width: 1.5;" width="51" x="332.5" y="182"/><rect fill="#FEFECE" height="5" style="stroke: #A80036; stroke-width: 1.5;" width="10" x="327.5" y="187"/><rect fill="#FEFECE" height="5" style="stroke: #A80036; stroke-width: 1.5;" width="10" x="327.5" y="208.4883"/><text fill="#000000" font-family="sans-serif" font-size="14" lengthAdjust="spacingAndGlyphs" textLength="31" x="342.5" y="205.5352">shirt</text><!--entity pants--><rect fill="#FEFECE" filter="url(#f1dmjjwd5tgzli)" height="36.4883" style="stroke: #A80036; stroke-width: 1.5;" width="58" x="207" y="182"/><rect fill="#FEFECE" height="5" style="stroke: #A80036; stroke-width: 1.5;" width="10" x="202" y="187"/><rect fill="#FEFECE" height="5" style="stroke: #A80036; stroke-width: 1.5;" width="10" x="202" y="208.4883"/><text fill="#000000" font-family="sans-serif" font-size="14" lengthAdjust="spacingAndGlyphs" textLength="38" x="217" y="205.5352">pants</text><!--entity treasure chest--><rect fill="#FEFECE" filter="url(#f1dmjjwd5tgzli)" height="36.4883" style="stroke: #A80036; stroke-width: 1.5;" width="117" x="451.5" y="86"/><rect fill="#FEFECE" height="5" style="stroke: #A80036; stroke-width: 1.5;" width="10" x="446.5" y="91"/><rect fill="#FEFECE" height="5" style="stroke: #A80036; stroke-width: 1.5;" width="10" x="446.5" y="112.4883"/><text fill="#000000" font-family="sans-serif" font-size="14" lengthAdjust="spacingAndGlyphs" textLength="97" x="461.5" y="109.5352">treasure chest</text><!--entity program--><rect fill="#FEFECE" filter="url(#f1dmjjwd5tgzli)" height="36.4883" style="stroke: #A80036; stroke-width: 1.5;" width="80" x="6" y="86"/><rect fill="#FEFECE" height="5" style="stroke: #A80036; stroke-width: 1.5;" width="10" x="1" y="91"/><rect fill="#FEFECE" height="5" style="stroke: #A80036; stroke-width: 1.5;" width="10" x="1" y="112.4883"/><text fill="#000000" font-family="sans-serif" font-size="14" lengthAdjust="spacingAndGlyphs" textLength="60" x="16" y="109.5352">program</text><!--link treasure chest to rat bastard sword--><path d="M515.4547,122.0569 C517.4236,128.5746 519.7629,136.3187 522.1909,144.3562 C522.7979,146.3656 523.4105,148.3933 524.0242,150.4248 C524.331,151.4406 524.6381,152.4573 524.945,153.4731 C525.0984,153.981 525.2518,154.4887 525.405,154.9959 " fill="none" id="treasure chest-rat bastard sword" style="stroke: #A80036; stroke-width: 1.0;"/><polygon fill="#A80036" points="525.405,154.9959,526.6315,145.2237,523.9591,150.2095,518.9733,147.5371,525.405,154.9959" style="stroke: #A80036; stroke-width: 1.0;"/><!--link container to treasure chest--><path d="M470.3418,181.6977 C478.336,166.0356 489.877,143.4246 498.4497,126.6292 " fill="none" id="container-treasure chest" style="stroke: #A80036; stroke-width: 1.0;"/><polygon fill="#A80036" points="500.7835,122.0569,493.1291,128.2545,498.5104,126.5103,500.2546,131.8915,500.7835,122.0569" style="stroke: #A80036; stroke-width: 1.0;"/><!--link program to character1--><path d="M58.0856,85.6981 C71.3808,67.4003 94.606,40.3926 122.5,29 C179.2801,5.8095 207.3153,-1.5477 260.5,29 C267.9569,33.2831 273.8136,39.6783 278.4104,46.9604 C280.7088,50.6014 282.6923,54.4641 284.4034,58.3954 C284.4569,58.5183 284.5101,75.3653 284.563,75.4883 " fill="none" id="program-character1" style="stroke: #A80036; stroke-width: 1.0;"/><polygon fill="#A80036" points="284.563,58.7642,284.6785,48.916,282.586,54.1716,277.3304,52.0792,284.563,58.7642" style="stroke: #A80036; stroke-width: 1.0;"/><!--link legs to pants--><path d="M236,122.0569 C236,137.5126 236,159.8647 236,176.6731 " fill="none" id="legs-pants" style="stroke: #A80036; stroke-width: 1.0;"/><polygon fill="#A80036" points="236,181.6977,240,172.6977,236,176.6977,232,172.6977,236,181.6977" style="stroke: #A80036; stroke-width: 1.0;"/><!--link torso to shirt--><path d="M358,122.0569 C358,137.5126 358,159.8647 358,176.6731 " fill="none" id="torso-shirt" style="stroke: #A80036; stroke-width: 1.0;"/><polygon fill="#A80036" points="358,181.6977,362,172.6977,358,176.6977,354,172.6977,358,181.6977" style="stroke: #A80036; stroke-width: 1.0;"/><!--
@startuml
[shirt]
[pants]

[treasure chest] - -> [rat bastard sword]
package "rat bastard sword" {
  [container] - -> [treasure chest]
}

[program] -> [character1]
package character1 {
  [legs] - -> [pants]
  [torso] - -> [shirt]
  [hand]
}

@enduml

PlantUML version 1.2018.01(Sun Jan 28 10:08:22 PST 2018)
(GPL source distribution)
Java Runtime: Java(TM) SE Runtime Environment
JVM: Java HotSpot(TM) 64-Bit Server VM
Java Version: 1.8.0_121-b13
Operating System: Mac OS X
OS Version: 10.13.3
Default Encoding: UTF-8
Language: en
Country: US
--></g></svg>