<?xml version="1.0" encoding="UTF-8" standalone="no"?><svg xmlns="http://www.w3.org/2000/svg" xmlns:xlink="http://www.w3.org/1999/xlink" contentScriptType="application/ecmascript" contentStyleType="text/css" height="103px" preserveAspectRatio="none" style="width:548px;height:103px;" version="1.1" viewBox="0 0 548 103" width="548px" zoomAndPan="magnify"><defs><filter height="300%" id="f13z9lehglbd83" width="300%" x="-1" y="-1"><feGaussianBlur result="blurOut" stdDeviation="2.0"/><feColorMatrix in="blurOut" result="blurOut2" type="matrix" values="0 0 0 0 0 0 0 0 0 0 0 0 0 0 0 0 0 0 .4 0"/><feOffset dx="4.0" dy="4.0" in="blurOut2" result="blurOut3"/><feBlend in="SourceGraphic" in2="blurOut3" mode="normal"/></filter></defs><g><!--entity program--><rect fill="#FEFECE" filter="url(#f13z9lehglbd83)" height="36.4883" style="stroke: #A80036; stroke-width: 1.5;" width="80" x="457" y="56"/><rect fill="#FEFECE" height="5" style="stroke: #A80036; stroke-width: 1.5;" width="10" x="452" y="61"/><rect fill="#FEFECE" height="5" style="stroke: #A80036; stroke-width: 1.5;" width="10" x="452" y="82.4883"/><text fill="#000000" font-family="sans-serif" font-size="14" lengthAdjust="spacingAndGlyphs" textLength="60" x="467" y="79.5352">program</text><!--entity A--><rect fill="#FEFECE" filter="url(#f13z9lehglbd83)" height="36.4883" style="stroke: #A80036; stroke-width: 1.5;" width="30" x="6" y="56"/><rect fill="#FEFECE" height="5" style="stroke: #A80036; stroke-width: 1.5;" width="10" x="1" y="61"/><rect fill="#FEFECE" height="5" style="stroke: #A80036; stroke-width: 1.5;" width="10" x="1" y="82.4883"/><text fill="#000000" font-family="sans-serif" font-size="14" lengthAdjust="spacingAndGlyphs" textLength="10" x="16" y="79.5352">A</text><!--entity B--><rect fill="#FEFECE" filter="url(#f13z9lehglbd83)" height="36.4883" style="stroke: #A80036; stroke-width: 1.5;" width="28" x="71" y="56"/><rect fill="#FEFECE" height="5" style="stroke: #A80036; stroke-width: 1.5;" width="10" x="66" y="61"/><rect fill="#FEFECE" height="5" style="stroke: #A80036; stroke-width: 1.5;" width="10" x="66" y="82.4883"/><text fill="#000000" font-family="sans-serif" font-size="14" lengthAdjust="spacingAndGlyphs" textLength="8" x="81" y="79.5352">B</text><!--entity C--><rect fill="#FEFECE" filter="url(#f13z9lehglbd83)" height="36.4883" style="stroke: #A80036; stroke-width: 1.5;" width="30" x="134" y="56"/><rect fill="#FEFECE" height="5" style="stroke: #A80036; stroke-width: 1.5;" width="10" x="129" y="61"/><rect fill="#FEFECE" height="5" style="stroke: #A80036; stroke-width: 1.5;" width="10" x="129" y="82.4883"/><text fill="#000000" font-family="sans-serif" font-size="14" lengthAdjust="spacingAndGlyphs" textLength="10" x="144" y="79.5352">C</text><!--entity D--><rect fill="#FEFECE" filter="url(#f13z9lehglbd83)" height="36.4883" style="stroke: #A80036; stroke-width: 1.5;" width="30" x="199" y="56"/><rect fill="#FEFECE" height="5" style="stroke: #A80036; stroke-width: 1.5;" width="10" x="194" y="61"/><rect fill="#FEFECE" height="5" style="stroke: #A80036; stroke-width: 1.5;" width="10" x="194" y="82.4883"/><text fill="#000000" font-family="sans-serif" font-size="14" lengthAdjust="spacingAndGlyphs" textLength="10" x="209" y="79.5352">D</text><!--entity E--><rect fill="#FEFECE" filter="url(#f13z9lehglbd83)" height="36.4883" style="stroke: #A80036; stroke-width: 1.5;" width="28" x="264" y="56"/><rect fill="#FEFECE" height="5" style="stroke: #A80036; stroke-width: 1.5;" width="10" x="259" y="61"/><rect fill="#FEFECE" height="5" style="stroke: #A80036; stroke-width: 1.5;" width="10" x="259" y="82.4883"/><text fill="#000000" font-family="sans-serif" font-size="14" lengthAdjust="spacingAndGlyphs" textLength="8" x="274" y="79.5352">E</text><!--entity ...--><rect fill="#FEFECE" filter="url(#f13z9lehglbd83)" height="36.4883" style="stroke: #A80036; stroke-width: 1.5;" width="32" x="327" y="56"/><rect fill="#FEFECE" height="5" style="stroke: #A80036; stroke-width: 1.5;" width="10" x="322" y="61"/><rect fill="#FEFECE" height="5" style="stroke: #A80036; stroke-width: 1.5;" width="10" x="322" y="82.4883"/><text fill="#000000" font-family="sans-serif" font-size="14" lengthAdjust="spacingAndGlyphs" textLength="12" x="337" y="79.5352">...</text><!--entity Z--><rect fill="#FEFECE" filter="url(#f13z9lehglbd83)" height="36.4883" style="stroke: #A80036; stroke-width: 1.5;" width="28" x="394" y="56"/><rect fill="#FEFECE" height="5" style="stroke: #A80036; stroke-width: 1.5;" width="10" x="389" y="61"/><rect fill="#FEFECE" height="5" style="stroke: #A80036; stroke-width: 1.5;" width="10" x="389" y="82.4883"/><text fill="#000000" font-family="sans-serif" font-size="14" lengthAdjust="spacingAndGlyphs" textLength="8" x="404" y="79.5352">Z</text><!--link A to B--><path d="M36.5,74 C46.2874,74 56.0748,74 65.8623,74 " fill="none" id="A-B" style="stroke: #A80036; stroke-width: 1.0;"/><polygon fill="#A80036" points="70.9805,74,61.9805,70,65.9805,74,61.9805,78,70.9805,74" style="stroke: #A80036; stroke-width: 1.0;"/><!--link B to C--><path d="M99,74 C108.8684,74 118.7367,74 128.6051,74 " fill="none" id="B-C" style="stroke: #A80036; stroke-width: 1.0;"/><polygon fill="#A80036" points="133.7656,74,124.7656,70,128.7656,74,124.7656,78,133.7656,74" style="stroke: #A80036; stroke-width: 1.0;"/><!--link C to D--><path d="M164.2344,74 C174.0565,74 183.8786,74 193.7007,74 " fill="none" id="C-D" style="stroke: #A80036; stroke-width: 1.0;"/><polygon fill="#A80036" points="198.837,74,189.837,70,193.837,74,189.837,78,198.837,74" style="stroke: #A80036; stroke-width: 1.0;"/><!--link D to E--><path d="M229,74 C238.8883,74 248.7767,74 258.665,74 " fill="none" id="D-E" style="stroke: #A80036; stroke-width: 1.0;"/><polygon fill="#A80036" points="263.8359,74,254.8359,70,258.8359,74,254.8359,78,263.8359,74" style="stroke: #A80036; stroke-width: 1.0;"/><!--link E to ...--><path d="M292.2188,74 C302.0161,74 311.8134,74 321.6108,74 " fill="none" id="E-..." style="stroke: #A80036; stroke-width: 1.0;"/><polygon fill="#A80036" points="326.7341,74,317.7341,70,321.7341,74,317.7341,78,326.7341,74" style="stroke: #A80036; stroke-width: 1.0;"/><!--link ... to Z--><path d="M359.25,74 C369.0879,74 378.9258,74 388.7636,74 " fill="none" id="...-Z" style="stroke: #A80036; stroke-width: 1.0;"/><polygon fill="#A80036" points="393.9082,74,384.9082,70,388.9082,74,384.9082,78,393.9082,74" style="stroke: #A80036; stroke-width: 1.0;"/><!--link Z to A--><path d="M395.4571,55.7994 C386.782,44.9053 374.1818,32.0369 359.5,26 C300.3085,1.6615 130.9343,2.2604 71.5,26 C58.2117,31.3077 46.4209,41.9597 37.5812,51.8834 " fill="none" id="Z-A" style="stroke: #A80036; stroke-width: 1.0;"/><polygon fill="#A80036" points="34.2203,55.7826,43.1261,51.577,37.4847,51.9953,37.0664,46.3539,34.2203,55.7826" style="stroke: #A80036; stroke-width: 1.0;"/><!--
@startuml
[program]
[A] -> [B]
[B] -> [C]
[C] -> [D]
[D] -> [E]
[E] -> [...]
[...] -> [Z]
[Z] -> [A]
@enduml

PlantUML version 1.2018.01(Sun Jan 28 10:08:22 PST 2018)
(GPL source distribution)
Java Runtime: Java(TM) SE Runtime Environment
JVM: Java HotSpot(TM) 64-Bit Server VM
Java Version: 1.8.0_121-b13
Operating System: Mac OS X
OS Version: 10.13.3
Default Encoding: UTF-8
Language: en
Country: US
--></g></svg>