<?xml version="1.0" encoding="UTF-8" standalone="no"?><svg xmlns="http://www.w3.org/2000/svg" xmlns:xlink="http://www.w3.org/1999/xlink" contentScriptType="application/ecmascript" contentStyleType="text/css" height="295px" preserveAspectRatio="none" style="width:599px;height:295px;background:#000000;" version="1.1" viewBox="0 0 599 295" width="599px" zoomAndPan="magnify"><defs><filter height="300%" id="f1lhjaunzuhn3g" width="300%" x="-1" y="-1"><feGaussianBlur result="blurOut" stdDeviation="2.0"/><feColorMatrix in="blurOut" result="blurOut2" type="matrix" values="0 0 0 0 0 0 0 0 0 0 0 0 0 0 0 0 0 0 .4 0"/><feOffset dx="4.0" dy="4.0" in="blurOut2" result="blurOut3"/><feBlend in="SourceGraphic" in2="blurOut3" mode="normal"/></filter></defs><g><!--entity cab--><rect fill="#070707" filter="url(#f1lhjaunzuhn3g)" height="36.4883" style="stroke: #C7C7C7; stroke-width: 1.5;" width="44" x="339" y="8"/><rect fill="#070707" height="5" style="stroke: #C7C7C7; stroke-width: 1.5;" width="10" x="334" y="13"/><rect fill="#070707" height="5" style="stroke: #C7C7C7; stroke-width: 1.5;" width="10" x="334" y="34.4883"/><text fill="#FFFFFF" font-family="sans-serif" font-size="14" lengthAdjust="spacingAndGlyphs" textLength="24" x="349" y="31.5352">cab</text><!--entity splitter--><ellipse cx="361" cy="133" fill="#070707" filter="url(#f1lhjaunzuhn3g)" rx="8" ry="8" style="stroke: #C7C7C7; stroke-width: 2.0;"/><text fill="#FFFFFF" font-family="sans-serif" font-size="14" lengthAdjust="spacingAndGlyphs" textLength="48" x="337" y="163.5352">splitter</text><!--entity stream-box--><rect fill="#070707" filter="url(#f1lhjaunzuhn3g)" height="36.4883" style="stroke: #C7C7C7; stroke-width: 1.5;" width="102" x="68" y="233"/><rect fill="#070707" height="5" style="stroke: #C7C7C7; stroke-width: 1.5;" width="10" x="63" y="238"/><rect fill="#070707" height="5" style="stroke: #C7C7C7; stroke-width: 1.5;" width="10" x="63" y="259.4883"/><text fill="#FFFFFF" font-family="sans-serif" font-size="14" lengthAdjust="spacingAndGlyphs" textLength="82" x="78" y="256.5352">stream-box</text><!--entity bcam--><ellipse cx="59" cy="133" fill="#070707" filter="url(#f1lhjaunzuhn3g)" rx="8" ry="8" style="stroke: #C7C7C7; stroke-width: 2.0;"/><text fill="#FFFFFF" font-family="sans-serif" font-size="14" lengthAdjust="spacingAndGlyphs" textLength="90" x="14" y="163.5352">blue webcam</text><!--entity gcam--><ellipse cx="200" cy="133" fill="#070707" filter="url(#f1lhjaunzuhn3g)" rx="8" ry="8" style="stroke: #C7C7C7; stroke-width: 2.0;"/><text fill="#FFFFFF" font-family="sans-serif" font-size="14" lengthAdjust="spacingAndGlyphs" textLength="91" x="154.5" y="163.5352">gold webcam</text><!--entity auxout--><ellipse cx="260" cy="251" fill="#070707" filter="url(#f1lhjaunzuhn3g)" rx="8" ry="8" style="stroke: #C7C7C7; stroke-width: 2.0;"/><text fill="#FFFFFF" font-family="sans-serif" font-size="14" lengthAdjust="spacingAndGlyphs" textLength="95" x="212.5" y="281.5352">extra monitor</text><!--entity bmonitor--><ellipse cx="402" cy="251" fill="#070707" filter="url(#f1lhjaunzuhn3g)" rx="8" ry="8" style="stroke: #C7C7C7; stroke-width: 2.0;"/><text fill="#FFFFFF" font-family="sans-serif" font-size="14" lengthAdjust="spacingAndGlyphs" textLength="89" x="357.5" y="281.5352">blue monitor</text><!--entity gmonitor--><ellipse cx="542" cy="251" fill="#070707" filter="url(#f1lhjaunzuhn3g)" rx="8" ry="8" style="stroke: #C7C7C7; stroke-width: 2.0;"/><text fill="#FFFFFF" font-family="sans-serif" font-size="14" lengthAdjust="spacingAndGlyphs" textLength="90" x="497" y="281.5352">gold monitor</text><!--link cab to splitter--><path d="M361,44.1511 C361,65.1164 361,99.1907 361,118.48 " fill="none" id="cab-splitter" style="stroke: #C7C7C7; stroke-width: 1.0;"/><polygon fill="#C7C7C7" points="361,123.9608,365,114.9608,361,118.9608,357,114.9608,361,123.9608" style="stroke: #C7C7C7; stroke-width: 1.0;"/><!--link bcam to stream-box--><path d="M63.7081,142.2593 C73.0187,160.57 94.0294,201.8912 107.3029,227.9957 " fill="none" id="bcam-stream-box" style="stroke: #C7C7C7; stroke-width: 1.0;"/><polygon fill="#C7C7C7" points="109.6867,232.6839,109.173,222.8484,107.4205,228.227,102.0419,226.4744,109.6867,232.6839" style="stroke: #C7C7C7; stroke-width: 1.0;"/><!--link splitter to stream-box--><path d="M351.8088,137.4816 C320.9058,152.5501 219.4291,202.0304 161.1578,230.4437 " fill="none" id="splitter-stream-box" style="stroke: #C7C7C7; stroke-width: 1.0;"/><polygon fill="#C7C7C7" points="156.3483,232.7888,166.191,232.4397,160.8425,230.5974,162.6847,225.2489,156.3483,232.7888" style="stroke: #C7C7C7; stroke-width: 1.0;"/><!--link splitter to auxout--><path d="M353.0747,142.2593 C335.2268,163.1113 291.8374,213.8038 271.2274,237.8829 " fill="none" id="splitter-auxout" style="stroke: #C7C7C7; stroke-width: 1.0;"/><polygon fill="#C7C7C7" points="267.8885,241.7838,276.7797,237.5474,271.1398,237.9852,270.702,232.3453,267.8885,241.7838" style="stroke: #C7C7C7; stroke-width: 1.0;"/><!--link splitter to gmonitor--><path d="M370.2247,139.0139 C399.8706,158.3411 492.8314,218.9454 528.1756,241.9874 " fill="none" id="splitter-gmonitor" style="stroke: #C7C7C7; stroke-width: 1.0;"/><polygon fill="#C7C7C7" points="532.5769,244.8567,527.2221,236.5907,528.3884,242.126,522.8531,243.2923,532.5769,244.8567" style="stroke: #C7C7C7; stroke-width: 1.0;"/><!--link splitter to bmonitor--><path d="M364.2172,142.2593 C371.3726,162.8528 388.6408,212.5515 397.127,236.9752 " fill="none" id="splitter-bmonitor" style="stroke: #C7C7C7; stroke-width: 1.0;"/><polygon fill="#C7C7C7" points="398.7977,241.7838,399.622,231.9695,397.1566,237.0608,392.0653,234.5953,398.7977,241.7838" style="stroke: #C7C7C7; stroke-width: 1.0;"/><!--link gcam to stream-box--><path d="M193.6441,142.2593 C181.0227,160.646 152.4746,202.2345 134.5686,228.3198 " fill="none" id="gcam-stream-box" style="stroke: #C7C7C7; stroke-width: 1.0;"/><polygon fill="#C7C7C7" points="131.5729,232.6839,139.9642,227.5277,134.4027,228.5617,133.3687,223.0001,131.5729,232.6839" style="stroke: #C7C7C7; stroke-width: 1.0;"/><!--
@startuml
skinparam monochrome reverse

[cab]
() splitter
[stream-box]
() "blue webcam" as bcam
() "gold webcam" as gcam
() "extra monitor" as auxout
() "blue monitor" as bmonitor
() "gold monitor" as gmonitor

[cab] - -> splitter
bcam - -> [stream-box]
splitter - -> [stream-box]
splitter - -> auxout
splitter - -> gmonitor
splitter - -> bmonitor
gcam - -> [stream-box]

@enduml

PlantUML version 1.2018.01(Sun Jan 28 10:08:22 PST 2018)
(GPL source distribution)
Java Runtime: Java(TM) SE Runtime Environment
JVM: Java HotSpot(TM) 64-Bit Server VM
Java Version: 1.8.0_121-b13
Operating System: Mac OS X
OS Version: 10.13.3
Default Encoding: UTF-8
Language: en
Country: US
--></g></svg>