<svg xmlns="http://www.w3.org/2000/svg" xmlns:xlink="http://www.w3.org/1999/xlink" contentStyleType="text/css" data-diagram-type="DESCRIPTION" height="279px" preserveAspectRatio="none" style="width:602px;height:279px;background:#FFFFFF;" version="1.1" viewBox="0 0 602 279" width="602px" zoomAndPan="magnify"><defs/><g><!--cluster character1--><g class="cluster" data-entity="character1" data-source-line="5" data-uid="ent0006" id="cluster_character1"><path d="M8.5,77.48 L85.8984,77.48 A3.75,3.75 0 0 1 88.3984,79.98 L95.3984,99.9683 L358.5,99.9683 A2.5,2.5 0 0 1 361,102.4683 L361,188.47 A2.5,2.5 0 0 1 358.5,190.97 L8.5,190.97 A2.5,2.5 0 0 1 6,188.47 L6,79.98 A2.5,2.5 0 0 1 8.5,77.48" fill="none" style="stroke:#000000;stroke-width:1.5;"/><line style="stroke:#000000;stroke-width:1.5;" x1="6" x2="95.3984" y1="99.9683" y2="99.9683"/><text fill="#000000" font-family="sans-serif" font-size="14" font-weight="bold" lengthAdjust="spacing" textLength="76.3984" x="10" y="93.0152">character1</text></g><!--entity legs--><g class="entity" data-entity="legs" data-source-line="7" data-uid="ent0008" id="entity_legs"><rect fill="#F1F1F1" height="46.4883" rx="2.5" ry="2.5" style="stroke:#181818;stroke-width:0.5;" width="67.7129" x="30.14" y="120.48"/><rect fill="#F1F1F1" height="10" style="stroke:#181818;stroke-width:0.5;" width="15" x="77.8529" y="125.48"/><rect fill="#F1F1F1" height="2" style="stroke:#181818;stroke-width:0.5;" width="4" x="75.8529" y="127.48"/><rect fill="#F1F1F1" height="2" style="stroke:#181818;stroke-width:0.5;" width="4" x="75.8529" y="131.48"/><text fill="#000000" font-family="sans-serif" font-size="14" lengthAdjust="spacing" textLength="27.7129" x="45.14" y="154.0152">legs</text></g><!--entity torso--><g class="entity" data-entity="torso" data-source-line="8" data-uid="ent0010" id="entity_torso"><rect fill="#F1F1F1" height="46.4883" rx="2.5" ry="2.5" style="stroke:#181818;stroke-width:0.5;" width="75.3008" x="133.35" y="120.48"/><rect fill="#F1F1F1" height="10" style="stroke:#181818;stroke-width:0.5;" width="15" x="188.6508" y="125.48"/><rect fill="#F1F1F1" height="2" style="stroke:#181818;stroke-width:0.5;" width="4" x="186.6508" y="127.48"/><rect fill="#F1F1F1" height="2" style="stroke:#181818;stroke-width:0.5;" width="4" x="186.6508" y="131.48"/><text fill="#000000" font-family="sans-serif" font-size="14" lengthAdjust="spacing" textLength="35.3008" x="148.35" y="154.0152">torso</text></g><!--entity hand--><g class="entity" data-entity="hand" data-source-line="9" data-uid="ent0012" id="entity_hand"><rect fill="#F1F1F1" height="46.4883" rx="2.5" ry="2.5" style="stroke:#181818;stroke-width:0.5;" width="73.9199" x="244.04" y="120.48"/><rect fill="#F1F1F1" height="10" style="stroke:#181818;stroke-width:0.5;" width="15" x="297.9599" y="125.48"/><rect fill="#F1F1F1" height="2" style="stroke:#181818;stroke-width:0.5;" width="4" x="295.9599" y="127.48"/><rect fill="#F1F1F1" height="2" style="stroke:#181818;stroke-width:0.5;" width="4" x="295.9599" y="131.48"/><text fill="#000000" font-family="sans-serif" font-size="14" lengthAdjust="spacing" textLength="33.9199" x="259.04" y="154.0152">hand</text></g><!--entity shirt--><g class="entity" data-entity="shirt" data-source-line="1" data-uid="ent0002" id="entity_shirt"><rect fill="#F1F1F1" height="46.4883" rx="2.5" ry="2.5" style="stroke:#181818;stroke-width:0.5;" width="70.8369" x="136.58" y="226.97"/><rect fill="#F1F1F1" height="10" style="stroke:#181818;stroke-width:0.5;" width="15" x="187.4169" y="231.97"/><rect fill="#F1F1F1" height="2" style="stroke:#181818;stroke-width:0.5;" width="4" x="185.4169" y="233.97"/><rect fill="#F1F1F1" height="2" style="stroke:#181818;stroke-width:0.5;" width="4" x="185.4169" y="237.97"/><text fill="#000000" font-family="sans-serif" font-size="14" lengthAdjust="spacing" textLength="30.8369" x="151.58" y="260.5052">shirt</text></g><!--entity pants--><g class="entity" data-entity="pants" data-source-line="2" data-uid="ent0003" id="entity_pants"><rect fill="#F1F1F1" height="46.4883" rx="2.5" ry="2.5" style="stroke:#181818;stroke-width:0.5;" width="77.6045" x="24.2" y="226.97"/><rect fill="#F1F1F1" height="10" style="stroke:#181818;stroke-width:0.5;" width="15" x="81.8045" y="231.97"/><rect fill="#F1F1F1" height="2" style="stroke:#181818;stroke-width:0.5;" width="4" x="79.8045" y="233.97"/><rect fill="#F1F1F1" height="2" style="stroke:#181818;stroke-width:0.5;" width="4" x="79.8045" y="237.97"/><text fill="#000000" font-family="sans-serif" font-size="14" lengthAdjust="spacing" textLength="37.6045" x="39.2" y="260.5052">pants</text></g><!--entity rat bastard sword--><g class="entity" data-entity="rat bastard sword" data-source-line="3" data-uid="ent0004" id="entity_rat bastard sword"><rect fill="#F1F1F1" height="46.4883" rx="2.5" ry="2.5" style="stroke:#181818;stroke-width:0.5;" width="159.8066" x="437.1" y="7"/><rect fill="#F1F1F1" height="10" style="stroke:#181818;stroke-width:0.5;" width="15" x="576.9066" y="12"/><rect fill="#F1F1F1" height="2" style="stroke:#181818;stroke-width:0.5;" width="4" x="574.9066" y="14"/><rect fill="#F1F1F1" height="2" style="stroke:#181818;stroke-width:0.5;" width="4" x="574.9066" y="18"/><text fill="#000000" font-family="sans-serif" font-size="14" lengthAdjust="spacing" textLength="119.8066" x="452.1" y="40.5352">rat bastard sword</text></g><!--entity program--><g class="entity" data-entity="program" data-source-line="5" data-uid="ent0005" id="entity_program"><rect fill="#F1F1F1" height="46.4883" rx="2.5" ry="2.5" style="stroke:#181818;stroke-width:0.5;" width="98.3994" x="303.8" y="7"/><rect fill="#F1F1F1" height="10" style="stroke:#181818;stroke-width:0.5;" width="15" x="382.1994" y="12"/><rect fill="#F1F1F1" height="2" style="stroke:#181818;stroke-width:0.5;" width="4" x="380.1994" y="14"/><rect fill="#F1F1F1" height="2" style="stroke:#181818;stroke-width:0.5;" width="4" x="380.1994" y="18"/><text fill="#000000" font-family="sans-serif" font-size="14" lengthAdjust="spacing" textLength="58.3994" x="318.8" y="40.5352">program</text></g><!--link program to character1--><g class="link" data-entity-1="program" data-entity-2="character1" data-source-line="5" data-uid="lnk7" id="link_program_character1"><path d="M353,53.8 C353,57.745 353,62.0386 353,66.5385 C353,68.7884 353,71.09 353,73.4253 C353,74.593 353,75.7691 353,76.9514 C353,77.0992 353,93.7354 353,93.8833" fill="none" id="program-to-character1" style="stroke:#181818;stroke-width:1;"/><polygon fill="#181818" points="353,99.8833,357,90.8833,353,94.8833,349,90.8833,353,99.8833" style="stroke:#181818;stroke-width:1;"/></g><!--link legs to pants--><g class="link" data-entity-1="legs" data-entity-2="pants" data-source-line="7" data-uid="lnk9" id="link_legs_pants"><path d="M63.78,167.4 C63.62,184.93 63.4348,203.0703 63.2748,220.5903" fill="none" id="legs-to-pants" style="stroke:#181818;stroke-width:1;"/><polygon fill="#181818" points="63.22,226.59,67.302,217.6269,63.2657,221.5902,59.3024,217.5538,63.22,226.59" style="stroke:#181818;stroke-width:1;"/></g><!--link torso to shirt--><g class="link" data-entity-1="torso" data-entity-2="shirt" data-source-line="8" data-uid="lnk11" id="link_torso_shirt"><path d="M171.22,167.4 C171.38,184.93 171.5652,203.0703 171.7252,220.5903" fill="none" id="torso-to-shirt" style="stroke:#181818;stroke-width:1;"/><polygon fill="#181818" points="171.78,226.59,175.6976,217.5538,171.7343,221.5902,167.698,217.6269,171.78,226.59" style="stroke:#181818;stroke-width:1;"/></g><!--SRC=[HOqn2iCm40JxUyLzm4K-a8y85MjPI2QnPVOEKeJyFLS8N2tCBZl9-axFaYwSRf64wmfpS5Fx36vPekHen95rMPwQIWTHlFAHvK9veLMzcNv5DRrhipcVpm5zqCQaqnkqump9J_u0]--></g></svg>