<svg xmlns="http://www.w3.org/2000/svg" xmlns:xlink="http://www.w3.org/1999/xlink" contentStyleType="text/css" data-diagram-type="DESCRIPTION" height="424px" preserveAspectRatio="none" style="width:571px;height:424px;background:#FFFFFF;" version="1.1" viewBox="0 0 571 424" width="571px" zoomAndPan="magnify"><defs/><g><!--cluster rat bastard sword--><g class="cluster" data-entity="rat bastard sword" data-source-line="5" data-uid="ent0007" id="cluster_rat bastard sword"><path d="M8.5,303.52 L138.542,303.52 A3.75,3.75 0 0 1 141.042,306.02 L148.042,326.0083 L174.5,326.0083 A2.5,2.5 0 0 1 177,328.5083 L177,414.51 A2.5,2.5 0 0 1 174.5,417.01 L8.5,417.01 A2.5,2.5 0 0 1 6,414.51 L6,306.02 A2.5,2.5 0 0 1 8.5,303.52" fill="none" style="stroke:#000000;stroke-width:1.5;"/><line style="stroke:#000000;stroke-width:1.5;" x1="6" x2="148.042" y1="326.0083" y2="326.0083"/><text fill="#000000" font-family="sans-serif" font-size="14" font-weight="bold" lengthAdjust="spacing" textLength="129.042" x="10" y="319.0552">rat bastard sword</text></g><!--cluster character1--><g class="cluster" data-entity="character1" data-source-line="10" data-uid="ent0011" id="cluster_character1"><path d="M211.5,83.55 L288.8984,83.55 A3.75,3.75 0 0 1 291.3984,86.05 L298.3984,106.0383 L561.5,106.0383 A2.5,2.5 0 0 1 564,108.5383 L564,194.53 A2.5,2.5 0 0 1 561.5,197.03 L211.5,197.03 A2.5,2.5 0 0 1 209,194.53 L209,86.05 A2.5,2.5 0 0 1 211.5,83.55" fill="none" style="stroke:#000000;stroke-width:1.5;"/><line style="stroke:#000000;stroke-width:1.5;" x1="209" x2="298.3984" y1="106.0383" y2="106.0383"/><text fill="#000000" font-family="sans-serif" font-size="14" font-weight="bold" lengthAdjust="spacing" textLength="76.3984" x="213" y="99.0852">character1</text></g><!--entity container--><g class="entity" data-entity="container" data-source-line="7" data-uid="ent0009" id="entity_container"><rect fill="#F1F1F1" height="46.4883" rx="2.5" ry="2.5" style="stroke:#181818;stroke-width:0.5;" width="103.6904" x="30.15" y="346.52"/><rect fill="#F1F1F1" height="10" style="stroke:#181818;stroke-width:0.5;" width="15" x="113.8404" y="351.52"/><rect fill="#F1F1F1" height="2" style="stroke:#181818;stroke-width:0.5;" width="4" x="111.8404" y="353.52"/><rect fill="#F1F1F1" height="2" style="stroke:#181818;stroke-width:0.5;" width="4" x="111.8404" y="357.52"/><text fill="#000000" font-family="sans-serif" font-size="14" lengthAdjust="spacing" textLength="63.6904" x="45.15" y="380.0552">container</text></g><!--entity legs--><g class="entity" data-entity="legs" data-source-line="12" data-uid="ent0013" id="entity_legs"><rect fill="#F1F1F1" height="46.4883" rx="2.5" ry="2.5" style="stroke:#181818;stroke-width:0.5;" width="67.7129" x="233.14" y="126.55"/><rect fill="#F1F1F1" height="10" style="stroke:#181818;stroke-width:0.5;" width="15" x="280.8529" y="131.55"/><rect fill="#F1F1F1" height="2" style="stroke:#181818;stroke-width:0.5;" width="4" x="278.8529" y="133.55"/><rect fill="#F1F1F1" height="2" style="stroke:#181818;stroke-width:0.5;" width="4" x="278.8529" y="137.55"/><text fill="#000000" font-family="sans-serif" font-size="14" lengthAdjust="spacing" textLength="27.7129" x="248.14" y="160.0852">legs</text></g><!--entity torso--><g class="entity" data-entity="torso" data-source-line="13" data-uid="ent0015" id="entity_torso"><rect fill="#F1F1F1" height="46.4883" rx="2.5" ry="2.5" style="stroke:#181818;stroke-width:0.5;" width="75.3008" x="336.35" y="126.55"/><rect fill="#F1F1F1" height="10" style="stroke:#181818;stroke-width:0.5;" width="15" x="391.6508" y="131.55"/><rect fill="#F1F1F1" height="2" style="stroke:#181818;stroke-width:0.5;" width="4" x="389.6508" y="133.55"/><rect fill="#F1F1F1" height="2" style="stroke:#181818;stroke-width:0.5;" width="4" x="389.6508" y="137.55"/><text fill="#000000" font-family="sans-serif" font-size="14" lengthAdjust="spacing" textLength="35.3008" x="351.35" y="160.0852">torso</text></g><!--entity hand--><g class="entity" data-entity="hand" data-source-line="14" data-uid="ent0017" id="entity_hand"><rect fill="#F1F1F1" height="46.4883" rx="2.5" ry="2.5" style="stroke:#181818;stroke-width:0.5;" width="73.9199" x="447.04" y="126.55"/><rect fill="#F1F1F1" height="10" style="stroke:#181818;stroke-width:0.5;" width="15" x="500.9599" y="131.55"/><rect fill="#F1F1F1" height="2" style="stroke:#181818;stroke-width:0.5;" width="4" x="498.9599" y="133.55"/><rect fill="#F1F1F1" height="2" style="stroke:#181818;stroke-width:0.5;" width="4" x="498.9599" y="137.55"/><text fill="#000000" font-family="sans-serif" font-size="14" lengthAdjust="spacing" textLength="33.9199" x="462.04" y="160.0852">hand</text></g><!--entity shirt--><g class="entity" data-entity="shirt" data-source-line="1" data-uid="ent0002" id="entity_shirt"><rect fill="#F1F1F1" height="46.4883" rx="2.5" ry="2.5" style="stroke:#181818;stroke-width:0.5;" width="70.8369" x="340.58" y="233.03"/><rect fill="#F1F1F1" height="10" style="stroke:#181818;stroke-width:0.5;" width="15" x="391.4169" y="238.03"/><rect fill="#F1F1F1" height="2" style="stroke:#181818;stroke-width:0.5;" width="4" x="389.4169" y="240.03"/><rect fill="#F1F1F1" height="2" style="stroke:#181818;stroke-width:0.5;" width="4" x="389.4169" y="244.03"/><text fill="#000000" font-family="sans-serif" font-size="14" lengthAdjust="spacing" textLength="30.8369" x="355.58" y="266.5652">shirt</text></g><!--entity pants--><g class="entity" data-entity="pants" data-source-line="2" data-uid="ent0003" id="entity_pants"><rect fill="#F1F1F1" height="46.4883" rx="2.5" ry="2.5" style="stroke:#181818;stroke-width:0.5;" width="77.6045" x="228.2" y="233.03"/><rect fill="#F1F1F1" height="10" style="stroke:#181818;stroke-width:0.5;" width="15" x="285.8045" y="238.03"/><rect fill="#F1F1F1" height="2" style="stroke:#181818;stroke-width:0.5;" width="4" x="283.8045" y="240.03"/><rect fill="#F1F1F1" height="2" style="stroke:#181818;stroke-width:0.5;" width="4" x="283.8045" y="244.03"/><text fill="#000000" font-family="sans-serif" font-size="14" lengthAdjust="spacing" textLength="37.6045" x="243.2" y="266.5652">pants</text></g><!--entity program--><g class="entity" data-entity="program" data-source-line="4" data-uid="ent0004" id="entity_program"><rect fill="#F1F1F1" height="46.4883" rx="2.5" ry="2.5" style="stroke:#181818;stroke-width:0.5;" width="98.3994" x="80.8" y="126.55"/><rect fill="#F1F1F1" height="10" style="stroke:#181818;stroke-width:0.5;" width="15" x="159.1994" y="131.55"/><rect fill="#F1F1F1" height="2" style="stroke:#181818;stroke-width:0.5;" width="4" x="157.1994" y="133.55"/><rect fill="#F1F1F1" height="2" style="stroke:#181818;stroke-width:0.5;" width="4" x="157.1994" y="137.55"/><text fill="#000000" font-family="sans-serif" font-size="14" lengthAdjust="spacing" textLength="58.3994" x="95.8" y="160.0852">program</text></g><!--entity treasure chest--><g class="entity" data-entity="treasure chest" data-source-line="4" data-uid="ent0005" id="entity_treasure chest"><rect fill="#F1F1F1" height="46.4883" rx="2.5" ry="2.5" style="stroke:#181818;stroke-width:0.5;" width="136.3115" x="56.84" y="233.03"/><rect fill="#F1F1F1" height="10" style="stroke:#181818;stroke-width:0.5;" width="15" x="173.1515" y="238.03"/><rect fill="#F1F1F1" height="2" style="stroke:#181818;stroke-width:0.5;" width="4" x="171.1515" y="240.03"/><rect fill="#F1F1F1" height="2" style="stroke:#181818;stroke-width:0.5;" width="4" x="171.1515" y="244.03"/><text fill="#000000" font-family="sans-serif" font-size="14" lengthAdjust="spacing" textLength="96.3115" x="71.84" y="266.5652">treasure chest</text></g><!--link program to treasure chest--><g class="link" data-entity-1="program" data-entity-2="treasure chest" data-source-line="4" data-uid="lnk6" id="link_program_treasure chest"><path d="M128.92,173.46 C128.08,190.99 127.2073,209.1369 126.3673,226.6569" fill="none" id="program-to-treasure chest" style="stroke:#181818;stroke-width:1;"/><polygon fill="#181818" points="126.08,232.65,130.5064,223.8519,126.3195,227.6557,122.5156,223.4688,126.08,232.65" style="stroke:#181818;stroke-width:1;"/></g><!--link treasure chest to rat bastard sword--><g class="link" data-entity-1="treasure chest" data-entity-2="rat bastard sword" data-source-line="5" data-uid="lnk8" id="link_treasure chest_rat bastard sword"><path d="M145.54,279.97 C147.2,282.42 148.73,284.96 150,287.52 C151.995,291.5438 153.7855,295.7844 155.3917,300.1304 C155.7932,301.2168 154.2262,319.1264 154.605,320.2243" fill="none" id="treasure chest-to-rat bastard sword" style="stroke:#181818;stroke-width:1;"/><polygon fill="#181818" points="156.5621,325.8961,157.4077,316.0836,154.9312,321.1696,149.8453,318.6931,156.5621,325.8961" style="stroke:#181818;stroke-width:1;"/></g><!--link container to treasure chest--><g class="link" data-entity-1="container" data-entity-2="treasure chest" data-source-line="7" data-uid="lnk10" id="link_container_treasure chest"><path d="M90.69,346.24 C98.15,326.91 106.6807,304.778 114.1407,285.438" fill="none" id="container-to-treasure chest" style="stroke:#181818;stroke-width:1;"/><polygon fill="#181818" points="116.3,279.84,109.3291,286.7974,114.5006,284.505,116.793,289.6765,116.3,279.84" style="stroke:#181818;stroke-width:1;"/></g><!--link program to character1--><g class="link" data-entity-1="program" data-entity-2="character1" data-source-line="10" data-uid="lnk12" id="link_program_character1"><path d="M143.41,126.41 C160.53,99.18 193,55.61 234.5,37.55 C292.57,12.27 464.58,6 519.5,37.55 C530.34,43.775 538.0863,53.4063 543.5977,64.467 C546.3534,69.9974 548.5504,75.8852 550.296,81.8833 C550.4051,82.2581 548.8888,99.3456 548.9944,99.7213" fill="none" id="program-to-character1" style="stroke:#181818;stroke-width:1;"/><polygon fill="#181818" points="550.618,105.4974,552.0333,95.7508,549.265,100.684,544.3318,97.9156,550.618,105.4974" style="stroke:#181818;stroke-width:1;"/></g><!--link legs to pants--><g class="link" data-entity-1="legs" data-entity-2="pants" data-source-line="12" data-uid="lnk14" id="link_legs_pants"><path d="M267,173.46 C267,190.99 267,209.13 267,226.65" fill="none" id="legs-to-pants" style="stroke:#181818;stroke-width:1;"/><polygon fill="#181818" points="267,232.65,271,223.65,267,227.65,263,223.65,267,232.65" style="stroke:#181818;stroke-width:1;"/></g><!--link torso to shirt--><g class="link" data-entity-1="torso" data-entity-2="shirt" data-source-line="13" data-uid="lnk16" id="link_torso_shirt"><path d="M374.43,173.46 C374.77,190.99 375.1136,209.1311 375.4536,226.6511" fill="none" id="torso-to-shirt" style="stroke:#181818;stroke-width:1;"/><polygon fill="#181818" points="375.57,232.65,379.3946,223.5741,375.473,227.6509,371.3961,223.7293,375.57,232.65" style="stroke:#181818;stroke-width:1;"/></g><!--SRC=[TOzD2i8m48NtESNGVHTUm8k4B9x9q9HgKcP6N8XtDwM1ek9k-ERnVhpcMImulwAO1jSEgPFW5cWSp-HD67eNffXPDzqNs5K2emlK88dqKIK5jo8kc9Y6dzz0JqVaOos6kR3yINfzT6c2c268nd8wt0-scrvvqkxN1pLeLRHsskSscb7Ibl86]--></g></svg>