<svg xmlns="http://www.w3.org/2000/svg" xmlns:xlink="http://www.w3.org/1999/xlink" contentStyleType="text/css" data-diagram-type="DESCRIPTION" height="299px" preserveAspectRatio="none" style="width:582px;height:299px;background:#000000;" version="1.1" viewBox="0 0 582 299" width="582px" zoomAndPan="magnify"><defs/><g><!--entity cab--><g class="entity" data-entity="cab" data-source-line="3" data-uid="ent0002" id="entity_cab"><rect fill="#0E0E0E" height="46.4883" rx="2.5" ry="2.5" style="stroke:#E7E7E7;stroke-width:0.5;" width="63.7139" x="318.7137" y="7"/><rect fill="#0E0E0E" height="10" style="stroke:#E7E7E7;stroke-width:0.5;" width="15" x="362.4276" y="12"/><rect fill="#0E0E0E" height="2" style="stroke:#E7E7E7;stroke-width:0.5;" width="4" x="360.4276" y="14"/><rect fill="#0E0E0E" height="2" style="stroke:#E7E7E7;stroke-width:0.5;" width="4" x="360.4276" y="18"/><text fill="#FFFFFF" font-family="sans-serif" font-size="14" lengthAdjust="spacing" textLength="23.7139" x="333.7137" y="40.5352">cab</text></g><!--entity splitter--><g class="entity" data-entity="splitter" data-source-line="4" data-uid="ent0003" id="entity_splitter"><ellipse cx="350.5737" cy="142.49" fill="#0E0E0E" rx="8" ry="8" style="stroke:#E7E7E7;stroke-width:0.5;"/><text fill="#FFFFFF" font-family="sans-serif" font-size="14" lengthAdjust="spacing" textLength="48.043" x="326.5522" y="173.0252">splitter</text></g><!--entity stream-box--><g class="entity" data-entity="stream-box" data-source-line="5" data-uid="ent0004" id="entity_stream-box"><rect fill="#0E0E0E" height="46.4883" rx="2.5" ry="2.5" style="stroke:#E7E7E7;stroke-width:0.5;" width="120.8008" x="44.1737" y="237.25"/><rect fill="#0E0E0E" height="10" style="stroke:#E7E7E7;stroke-width:0.5;" width="15" x="144.9745" y="242.25"/><rect fill="#0E0E0E" height="2" style="stroke:#E7E7E7;stroke-width:0.5;" width="4" x="142.9745" y="244.25"/><rect fill="#0E0E0E" height="2" style="stroke:#E7E7E7;stroke-width:0.5;" width="4" x="142.9745" y="248.25"/><text fill="#FFFFFF" font-family="sans-serif" font-size="14" lengthAdjust="spacing" textLength="80.8008" x="59.1737" y="270.7852">stream-box</text></g><!--entity bcam--><g class="entity" data-entity="bcam" data-source-line="6" data-uid="ent0005" id="entity_bcam"><ellipse cx="50.5737" cy="142.49" fill="#0E0E0E" rx="8" ry="8" style="stroke:#E7E7E7;stroke-width:0.5;"/><text fill="#FFFFFF" font-family="sans-serif" font-size="14" lengthAdjust="spacing" textLength="89.1475" x="6" y="173.0252">blue webcam</text></g><!--entity gcam--><g class="entity" data-entity="gcam" data-source-line="7" data-uid="ent0006" id="entity_gcam"><ellipse cx="189.5737" cy="142.49" fill="#0E0E0E" rx="8" ry="8" style="stroke:#E7E7E7;stroke-width:0.5;"/><text fill="#FFFFFF" font-family="sans-serif" font-size="14" lengthAdjust="spacing" textLength="89.9883" x="144.5796" y="173.0252">gold webcam</text></g><!--entity auxout--><g class="entity" data-entity="auxout" data-source-line="8" data-uid="ent0007" id="entity_auxout"><ellipse cx="253.5737" cy="260.49" fill="#0E0E0E" rx="8" ry="8" style="stroke:#E7E7E7;stroke-width:0.5;"/><text fill="#FFFFFF" font-family="sans-serif" font-size="14" lengthAdjust="spacing" textLength="93.4814" x="206.833" y="291.0252">extra monitor</text></g><!--entity bmonitor--><g class="entity" data-entity="bmonitor" data-source-line="9" data-uid="ent0008" id="entity_bmonitor"><ellipse cx="393.5737" cy="260.49" fill="#0E0E0E" rx="8" ry="8" style="stroke:#E7E7E7;stroke-width:0.5;"/><text fill="#FFFFFF" font-family="sans-serif" font-size="14" lengthAdjust="spacing" textLength="87.7461" x="349.7007" y="291.0252">blue monitor</text></g><!--entity gmonitor--><g class="entity" data-entity="gmonitor" data-source-line="10" data-uid="ent0009" id="entity_gmonitor"><ellipse cx="531.5737" cy="260.49" fill="#0E0E0E" rx="8" ry="8" style="stroke:#E7E7E7;stroke-width:0.5;"/><text fill="#FFFFFF" font-family="sans-serif" font-size="14" lengthAdjust="spacing" textLength="88.5869" x="487.2803" y="291.0252">gold monitor</text></g><!--link cab to splitter--><g class="link" data-entity-1="cab" data-entity-2="splitter" data-source-line="12" data-uid="lnk10" id="link_cab_splitter"><path d="M350.5737,53.82 C350.5737,78.64 350.5737,111.18 350.5737,127.62" fill="none" id="cab-to-splitter" style="stroke:#E7E7E7;stroke-width:1;"/><polygon fill="#E7E7E7" points="350.5737,133.62,354.5737,124.62,350.5737,128.62,346.5737,124.62,350.5737,133.62" style="stroke:#E7E7E7;stroke-width:1;"/></g><!--link bcam to stream-box--><g class="link" data-entity-1="bcam" data-entity-2="stream-box" data-source-line="13" data-uid="lnk11" id="link_bcam_stream-box"><path d="M54.2837,151.46 C62.3837,168.87 79.3718,205.3504 91.5718,231.5604" fill="none" id="bcam-to-stream-box" style="stroke:#E7E7E7;stroke-width:1;"/><polygon fill="#E7E7E7" points="94.1037,237,93.9322,227.1526,91.9938,232.467,86.6794,230.5286,94.1037,237" style="stroke:#E7E7E7;stroke-width:1;"/></g><!--link splitter to stream-box--><g class="link" data-entity-1="splitter" data-entity-2="stream-box" data-source-line="14" data-uid="lnk12" id="link_splitter_stream-box"><path d="M341.8137,147.62 C311.9937,161.68 218.2808,205.8713 158.0008,234.2913" fill="none" id="splitter-to-stream-box" style="stroke:#E7E7E7;stroke-width:1;"/><polygon fill="#E7E7E7" points="152.5737,236.85,162.4201,236.63,157.0963,234.7178,159.0086,229.3939,152.5737,236.85" style="stroke:#E7E7E7;stroke-width:1;"/></g><!--link splitter to auxout--><g class="link" data-entity-1="splitter" data-entity-2="auxout" data-source-line="15" data-uid="lnk13" id="link_splitter_auxout"><path d="M343.9037,151.46 C326.1037,172.76 281.4415,226.1562 263.8815,247.1662" fill="none" id="splitter-to-auxout" style="stroke:#E7E7E7;stroke-width:1;"/><polygon fill="#E7E7E7" points="260.0337,251.77,268.8746,247.4296,263.2402,247.9335,262.7362,242.2992,260.0337,251.77" style="stroke:#E7E7E7;stroke-width:1;"/></g><!--link splitter to gmonitor--><g class="link" data-entity-1="splitter" data-entity-2="gmonitor" data-source-line="16" data-uid="lnk14" id="link_splitter_gmonitor"><path d="M359.3037,149.08 C389.9537,168.73 487.3719,231.1629 517.8819,250.7129" fill="none" id="splitter-to-gmonitor" style="stroke:#E7E7E7;stroke-width:1;"/><polygon fill="#E7E7E7" points="522.9337,253.95,517.514,245.7265,518.7239,251.2524,513.1979,252.4623,522.9337,253.95" style="stroke:#E7E7E7;stroke-width:1;"/></g><!--link splitter to bmonitor--><g class="link" data-entity-1="splitter" data-entity-2="bmonitor" data-source-line="17" data-uid="lnk15" id="link_splitter_bmonitor"><path d="M353.5337,151.46 C361.4237,172.76 380.8378,225.1343 388.6278,246.1443" fill="none" id="splitter-to-bmonitor" style="stroke:#E7E7E7;stroke-width:1;"/><polygon fill="#E7E7E7" points="390.7137,251.77,391.3354,241.9408,388.9755,247.0819,383.8344,244.722,390.7137,251.77" style="stroke:#E7E7E7;stroke-width:1;"/></g><!--link gcam to stream-box--><g class="link" data-entity-1="gcam" data-entity-2="stream-box" data-source-line="18" data-uid="lnk16" id="link_gcam_stream-box"><path d="M183.7337,151.46 C170.9837,168.87 143.7994,205.9498 124.5994,232.1598" fill="none" id="gcam-to-stream-box" style="stroke:#E7E7E7;stroke-width:1;"/><polygon fill="#E7E7E7" points="121.0537,237,129.5991,232.1034,124.0085,232.9665,123.1454,227.3758,121.0537,237" style="stroke:#E7E7E7;stroke-width:1;"/></g><!--SRC=[XSv12iCW40NGlQSOiceNkK8l4heOxM2aCHD6RNFyearYX49t-X_C_-7fvWK5FNYUsOp2da3eHH98gS6WlglB5S8okHX9r12Y4FfUyrgWqrCYU9Csw3l00FbHmFBqE8FTWTOecEjSP2c4QUKKwxcpwUrJRvxLxlgT2dr_grjpTKcQqJl_aMrJanrjJNeij3_xFW00]--></g></svg>