<?xml version="1.0" encoding="UTF-8" standalone="no"?><svg xmlns="http://www.w3.org/2000/svg" xmlns:xlink="http://www.w3.org/1999/xlink" contentScriptType="application/ecmascript" contentStyleType="text/css" height="99px" preserveAspectRatio="none" style="width:421px;height:99px;" version="1.1" viewBox="0 0 421 99" width="421px" zoomAndPan="magnify"><defs><filter height="300%" id="fkr1yn90ny0q9" width="300%" x="-1" y="-1"><feGaussianBlur result="blurOut" stdDeviation="2.0"/><feColorMatrix in="blurOut" result="blurOut2" type="matrix" values="0 0 0 0 0 0 0 0 0 0 0 0 0 0 0 0 0 0 .4 0"/><feOffset dx="4.0" dy="4.0" in="blurOut2" result="blurOut3"/><feBlend in="SourceGraphic" in2="blurOut3" mode="normal"/></filter></defs><g><!--cluster Auto deploy--><polygon fill="#FFFFFF" filter="url(#fkr1yn90ny0q9)" points="14,16,107,16,114,38.4883,234,38.4883,234,87,14,87,14,16" style="stroke: #000000; stroke-width: 1.5;"/><line style="stroke: #000000; stroke-width: 1.5;" x1="14" x2="114" y1="38.4883" y2="38.4883"/><text fill="#000000" font-family="sans-serif" font-size="14" font-weight="bold" lengthAdjust="spacingAndGlyphs" textLength="87" x="18" y="31.5352">Auto deploy</text><!--cluster Gated deployment--><polygon fill="#FFFFFF" filter="url(#fkr1yn90ny0q9)" points="252,16,389,16,396,38.4883,399,38.4883,399,87,252,87,252,16" style="stroke: #000000; stroke-width: 1.5;"/><line style="stroke: #000000; stroke-width: 1.5;" x1="252" x2="396" y1="38.4883" y2="38.4883"/><text fill="#000000" font-family="sans-serif" font-size="14" font-weight="bold" lengthAdjust="spacingAndGlyphs" textLength="131" x="256" y="31.5352">Gated deployment</text><!--entity local--><rect fill="#FEFECE" filter="url(#fkr1yn90ny0q9)" height="36.4883" style="stroke: #A80036; stroke-width: 1.5;" width="52" x="22" y="43"/><rect fill="#FEFECE" height="5" style="stroke: #A80036; stroke-width: 1.5;" width="10" x="17" y="48"/><rect fill="#FEFECE" height="5" style="stroke: #A80036; stroke-width: 1.5;" width="10" x="17" y="69.4883"/><text fill="#000000" font-family="sans-serif" font-size="14" lengthAdjust="spacingAndGlyphs" textLength="32" x="32" y="66.5352">local</text><!--entity dev--><rect fill="#FEFECE" filter="url(#fkr1yn90ny0q9)" height="36.4883" style="stroke: #A80036; stroke-width: 1.5;" width="44" x="109" y="43"/><rect fill="#FEFECE" height="5" style="stroke: #A80036; stroke-width: 1.5;" width="10" x="104" y="48"/><rect fill="#FEFECE" height="5" style="stroke: #A80036; stroke-width: 1.5;" width="10" x="104" y="69.4883"/><text fill="#000000" font-family="sans-serif" font-size="14" lengthAdjust="spacingAndGlyphs" textLength="24" x="119" y="66.5352">dev</text><!--entity int--><rect fill="#FEFECE" filter="url(#fkr1yn90ny0q9)" height="36.4883" style="stroke: #A80036; stroke-width: 1.5;" width="38" x="188" y="43"/><rect fill="#FEFECE" height="5" style="stroke: #A80036; stroke-width: 1.5;" width="10" x="183" y="48"/><rect fill="#FEFECE" height="5" style="stroke: #A80036; stroke-width: 1.5;" width="10" x="183" y="69.4883"/><text fill="#000000" font-family="sans-serif" font-size="14" lengthAdjust="spacingAndGlyphs" textLength="18" x="198" y="66.5352">int</text><!--entity stg--><rect fill="#FEFECE" filter="url(#fkr1yn90ny0q9)" height="36.4883" style="stroke: #A80036; stroke-width: 1.5;" width="41" x="261.5" y="43"/><rect fill="#FEFECE" height="5" style="stroke: #A80036; stroke-width: 1.5;" width="10" x="256.5" y="48"/><rect fill="#FEFECE" height="5" style="stroke: #A80036; stroke-width: 1.5;" width="10" x="256.5" y="69.4883"/><text fill="#000000" font-family="sans-serif" font-size="14" lengthAdjust="spacingAndGlyphs" textLength="21" x="271.5" y="66.5352">stg</text><!--entity prod--><rect fill="#FEFECE" filter="url(#fkr1yn90ny0q9)" height="36.4883" style="stroke: #A80036; stroke-width: 1.5;" width="53" x="337.5" y="43"/><rect fill="#FEFECE" height="5" style="stroke: #A80036; stroke-width: 1.5;" width="10" x="332.5" y="48"/><rect fill="#FEFECE" height="5" style="stroke: #A80036; stroke-width: 1.5;" width="10" x="332.5" y="69.4883"/><text fill="#000000" font-family="sans-serif" font-size="14" lengthAdjust="spacingAndGlyphs" textLength="33" x="347.5" y="66.5352">prod</text><!--link local to dev--><path d="M74.2617,61 C84.0759,61 93.8902,61 103.7044,61 " fill="none" id="local-dev" style="stroke: #A80036; stroke-width: 1.0;"/><polygon fill="#A80036" points="108.8366,61,99.8366,57,103.8366,61,99.8366,65,108.8366,61" style="stroke: #A80036; stroke-width: 1.0;"/><!--link dev to int--><path d="M153.2656,61 C163.0369,61 172.8082,61 182.5795,61 " fill="none" id="dev-int" style="stroke: #A80036; stroke-width: 1.0;"/><polygon fill="#A80036" points="187.6892,61,178.6892,57,182.6892,61,178.6892,65,187.6892,61" style="stroke: #A80036; stroke-width: 1.0;"/><!--link int to stg--><path d="M226.043,71.2296 C236.1865,74.8243 246.3301,75.4556 256.4737,73.1237 " fill="none" id="int-stg" style="stroke: #A80036; stroke-width: 1.0;"/><polygon fill="#A80036" points="261.4533,71.7408,251.7111,70.295,256.6356,73.0788,253.8519,78.0033,261.4533,71.7408" style="stroke: #A80036; stroke-width: 1.0;"/><!--link stg to prod--><path d="M302.8203,61 C312.5887,61 322.3572,61 332.1256,61 " fill="none" id="stg-prod" style="stroke: #A80036; stroke-width: 1.0;"/><polygon fill="#A80036" points="337.2339,61,328.2339,57,332.2339,61,328.2339,65,337.2339,61" style="stroke: #A80036; stroke-width: 1.0;"/><!--
@startuml

package "Auto deploy" {
  [local] -> [dev]
  [dev] -> [int]
}

package "Gated deployment" {
  [int] -> [stg]
  [stg] -> [prod]
}

@enduml

PlantUML version 1.2019.06(Fri May 24 10:10:25 PDT 2019)
(GPL source distribution)
Java Runtime: OpenJDK Runtime Environment
JVM: OpenJDK 64-Bit Server VM
Java Version: 12+33
Operating System: Mac OS X
OS Version: 10.14.6
Default Encoding: UTF-8
Language: en
Country: US
--></g></svg>