<?xml version="1.0" encoding="UTF-8" standalone="no"?><svg xmlns="http://www.w3.org/2000/svg" xmlns:xlink="http://www.w3.org/1999/xlink" contentScriptType="application/ecmascript" contentStyleType="text/css" height="321px" preserveAspectRatio="none" style="width:477px;height:321px;" version="1.1" viewBox="0 0 477 321" width="477px" zoomAndPan="magnify"><defs><filter height="300%" id="f1bwv2isa5c6av" width="300%" x="-1" y="-1"><feGaussianBlur result="blurOut" stdDeviation="2.0"/><feColorMatrix in="blurOut" result="blurOut2" type="matrix" values="0 0 0 0 0 0 0 0 0 0 0 0 0 0 0 0 0 0 .4 0"/><feOffset dx="4.0" dy="4.0" in="blurOut2" result="blurOut3"/><feBlend in="SourceGraphic" in2="blurOut3" mode="normal"/></filter></defs><g><!--cluster rat bastard sword--><polygon fill="#FFFFFF" filter="url(#f1bwv2isa5c6av)" points="14,238,148,238,155,260.4883,158,260.4883,158,309,14,309,14,238" style="stroke: #000000; stroke-width: 1.5;"/><line style="stroke: #000000; stroke-width: 1.5;" x1="14" x2="155" y1="260.4883" y2="260.4883"/><text fill="#000000" font-family="sans-serif" font-size="14" font-weight="bold" lengthAdjust="spacingAndGlyphs" textLength="128" x="18" y="253.5352">rat bastard sword</text><!--cluster character1--><polygon fill="#FFFFFF" filter="url(#f1bwv2isa5c6av)" points="174,46,254,46,261,68.4883,455,68.4883,455,117,174,117,174,46" style="stroke: #000000; stroke-width: 1.5;"/><line style="stroke: #000000; stroke-width: 1.5;" x1="174" x2="261" y1="68.4883" y2="68.4883"/><text fill="#000000" font-family="sans-serif" font-size="14" font-weight="bold" lengthAdjust="spacingAndGlyphs" textLength="74" x="178" y="61.5352">character1</text><!--entity container--><rect fill="#FEFECE" filter="url(#f1bwv2isa5c6av)" height="36.4883" style="stroke: #A80036; stroke-width: 1.5;" width="85" x="25.5" y="265"/><rect fill="#FEFECE" height="5" style="stroke: #A80036; stroke-width: 1.5;" width="10" x="20.5" y="270"/><rect fill="#FEFECE" height="5" style="stroke: #A80036; stroke-width: 1.5;" width="10" x="20.5" y="291.4883"/><text fill="#000000" font-family="sans-serif" font-size="14" lengthAdjust="spacingAndGlyphs" textLength="65" x="35.5" y="288.5352">container</text><!--entity legs--><rect fill="#FEFECE" filter="url(#f1bwv2isa5c6av)" height="36.4883" style="stroke: #A80036; stroke-width: 1.5;" width="48" x="308" y="73"/><rect fill="#FEFECE" height="5" style="stroke: #A80036; stroke-width: 1.5;" width="10" x="303" y="78"/><rect fill="#FEFECE" height="5" style="stroke: #A80036; stroke-width: 1.5;" width="10" x="303" y="99.4883"/><text fill="#000000" font-family="sans-serif" font-size="14" lengthAdjust="spacingAndGlyphs" textLength="28" x="318" y="96.5352">legs</text><!--entity torso--><rect fill="#FEFECE" filter="url(#f1bwv2isa5c6av)" height="36.4883" style="stroke: #A80036; stroke-width: 1.5;" width="56" x="391" y="73"/><rect fill="#FEFECE" height="5" style="stroke: #A80036; stroke-width: 1.5;" width="10" x="386" y="78"/><rect fill="#FEFECE" height="5" style="stroke: #A80036; stroke-width: 1.5;" width="10" x="386" y="99.4883"/><text fill="#000000" font-family="sans-serif" font-size="14" lengthAdjust="spacingAndGlyphs" textLength="36" x="401" y="96.5352">torso</text><!--entity hand--><rect fill="#FEFECE" filter="url(#f1bwv2isa5c6av)" height="36.4883" style="stroke: #A80036; stroke-width: 1.5;" width="55" x="182.5" y="73"/><rect fill="#FEFECE" height="5" style="stroke: #A80036; stroke-width: 1.5;" width="10" x="177.5" y="78"/><rect fill="#FEFECE" height="5" style="stroke: #A80036; stroke-width: 1.5;" width="10" x="177.5" y="99.4883"/><text fill="#000000" font-family="sans-serif" font-size="14" lengthAdjust="spacingAndGlyphs" textLength="35" x="192.5" y="96.5352">hand</text><!--entity shirt--><rect fill="#FEFECE" filter="url(#f1bwv2isa5c6av)" height="36.4883" style="stroke: #A80036; stroke-width: 1.5;" width="51" x="394.5" y="169"/><rect fill="#FEFECE" height="5" style="stroke: #A80036; stroke-width: 1.5;" width="10" x="389.5" y="174"/><rect fill="#FEFECE" height="5" style="stroke: #A80036; stroke-width: 1.5;" width="10" x="389.5" y="195.4883"/><text fill="#000000" font-family="sans-serif" font-size="14" lengthAdjust="spacingAndGlyphs" textLength="31" x="404.5" y="192.5352">shirt</text><!--entity pants--><rect fill="#FEFECE" filter="url(#f1bwv2isa5c6av)" height="36.4883" style="stroke: #A80036; stroke-width: 1.5;" width="58" x="301" y="169"/><rect fill="#FEFECE" height="5" style="stroke: #A80036; stroke-width: 1.5;" width="10" x="296" y="174"/><rect fill="#FEFECE" height="5" style="stroke: #A80036; stroke-width: 1.5;" width="10" x="296" y="195.4883"/><text fill="#000000" font-family="sans-serif" font-size="14" lengthAdjust="spacingAndGlyphs" textLength="38" x="311" y="192.5352">pants</text><!--entity program--><rect fill="#FEFECE" filter="url(#f1bwv2isa5c6av)" height="36.4883" style="stroke: #A80036; stroke-width: 1.5;" width="80" x="67" y="73"/><rect fill="#FEFECE" height="5" style="stroke: #A80036; stroke-width: 1.5;" width="10" x="62" y="78"/><rect fill="#FEFECE" height="5" style="stroke: #A80036; stroke-width: 1.5;" width="10" x="62" y="99.4883"/><text fill="#000000" font-family="sans-serif" font-size="14" lengthAdjust="spacingAndGlyphs" textLength="60" x="77" y="96.5352">program</text><!--entity treasure chest--><rect fill="#FEFECE" filter="url(#f1bwv2isa5c6av)" height="36.4883" style="stroke: #A80036; stroke-width: 1.5;" width="117" x="48.5" y="169"/><rect fill="#FEFECE" height="5" style="stroke: #A80036; stroke-width: 1.5;" width="10" x="43.5" y="174"/><rect fill="#FEFECE" height="5" style="stroke: #A80036; stroke-width: 1.5;" width="10" x="43.5" y="195.4883"/><text fill="#000000" font-family="sans-serif" font-size="14" lengthAdjust="spacingAndGlyphs" textLength="97" x="58.5" y="192.5352">treasure chest</text><!--link program to treasure chest--><path d="M107,109.0569 C107,124.5126 107,146.8647 107,163.6731 " fill="none" id="program-treasure chest" style="stroke: #A80036; stroke-width: 1.0;"/><polygon fill="#A80036" points="107,168.6977,111,159.6977,107,163.6977,103,159.6977,107,168.6977" style="stroke: #A80036; stroke-width: 1.0;"/><!--link treasure chest to rat bastard sword--><path d="M114.6266,205.3944 C116.629,210.24 118.874,215.6853 121.1676,221.2722 C122.3144,224.0657 123.4733,226.8946 124.6202,229.7016 C125.1936,231.1052 125.7639,232.5032 126.3283,233.8887 C126.6104,234.5814 126.8911,235.271 127.1698,235.9565 C127.3092,236.2992 127.4481,236.641 127.5865,236.9816 C127.6557,237.1519 127.7247,237.322 127.7936,237.4917 C127.8281,237.5766 127.8625,237.6614 127.8969,237.7461 C127.9141,237.7884 127.9313,237.8308 127.9485,237.8731 " fill="none" id="treasure chest-rat bastard sword" style="stroke: #A80036; stroke-width: 1.0;"/><polygon fill="#A80036" points="127.9485,237.8731,128.2698,228.0295,126.0679,233.2402,120.8572,231.0384,127.9485,237.8731" style="stroke: #A80036; stroke-width: 1.0;"/><!--link container to treasure chest--><path d="M75.4353,264.6977 C81.7437,249.1694 90.827,226.8106 97.6314,210.0611 " fill="none" id="container-treasure chest" style="stroke: #A80036; stroke-width: 1.0;"/><polygon fill="#A80036" points="99.6644,205.0569,92.571,211.8895,97.7824,209.6892,99.9827,214.9006,99.6644,205.0569" style="stroke: #A80036; stroke-width: 1.0;"/><!--link program to character1--><path d="M119.0856,72.6981 C132.3808,54.4003 155.606,27.3926 183.5,16 C205.7183,6.9255 216.6886,4.0465 237.5,16 C244.9951,20.305 250.927,26.7119 255.6166,33.9989 C257.9615,37.6425 259.9957,41.506 261.7596,45.4369 C261.8147,45.5598 261.8696,62.3653 261.9242,62.4883 " fill="none" id="program-character1" style="stroke: #A80036; stroke-width: 1.0;"/><polygon fill="#A80036" points="261.9242,45.8056,261.9281,35.9568,259.8953,41.2358,254.6163,39.203,261.9242,45.8056" style="stroke: #A80036; stroke-width: 1.0;"/><!--link legs to pants--><path d="M331.6238,109.0569 C331.3018,124.5126 330.8362,146.8647 330.486,163.6731 " fill="none" id="legs-pants" style="stroke: #A80036; stroke-width: 1.0;"/><polygon fill="#A80036" points="330.3813,168.6977,334.5681,159.7831,330.4856,163.6988,326.5699,159.6162,330.3813,168.6977" style="stroke: #A80036; stroke-width: 1.0;"/><!--link torso to shirt--><path d="M419.1881,109.0569 C419.3491,124.5126 419.5819,146.8647 419.757,163.6731 " fill="none" id="torso-shirt" style="stroke: #A80036; stroke-width: 1.0;"/><polygon fill="#A80036" points="419.8094,168.6977,423.7153,159.6565,419.7573,163.698,415.7158,159.7399,419.8094,168.6977" style="stroke: #A80036; stroke-width: 1.0;"/><!--
@startuml
[shirt]
[pants]

[program] - -> [treasure chest]
[treasure chest] - -> [rat bastard sword]
package "rat bastard sword" {
  [container] - -> [treasure chest]
}

[program] -> [character1]
package character1 {
  [legs] - -> [pants]
  [torso] - -> [shirt]
  [hand]
}

@enduml

PlantUML version 1.2018.01(Sun Jan 28 10:08:22 PST 2018)
(GPL source distribution)
Java Runtime: Java(TM) SE Runtime Environment
JVM: Java HotSpot(TM) 64-Bit Server VM
Java Version: 1.8.0_121-b13
Operating System: Mac OS X
OS Version: 10.13.3
Default Encoding: UTF-8
Language: en
Country: US
--></g></svg>