<?xml version="1.0" encoding="UTF-8" standalone="no"?><svg xmlns="http://www.w3.org/2000/svg" xmlns:xlink="http://www.w3.org/1999/xlink" contentScriptType="application/ecmascript" contentStyleType="text/css" height="247px" preserveAspectRatio="none" style="width:345px;height:247px;" version="1.1" viewBox="0 0 345 247" width="345px" zoomAndPan="magnify"><defs><filter height="300%" id="f67im0e4jdcl9" width="300%" x="-1" y="-1"><feGaussianBlur result="blurOut" stdDeviation="2.0"/><feColorMatrix in="blurOut" result="blurOut2" type="matrix" values="0 0 0 0 0 0 0 0 0 0 0 0 0 0 0 0 0 0 .4 0"/><feOffset dx="4.0" dy="4.0" in="blurOut2" result="blurOut3"/><feBlend in="SourceGraphic" in2="blurOut3" mode="normal"/></filter></defs><g><!--cluster character1--><polygon fill="#FFFFFF" filter="url(#f67im0e4jdcl9)" points="14,77,94,77,101,99.4883,295,99.4883,295,148,14,148,14,77" style="stroke: #000000; stroke-width: 1.5;"/><line style="stroke: #000000; stroke-width: 1.5;" x1="14" x2="101" y1="99.4883" y2="99.4883"/><text fill="#000000" font-family="sans-serif" font-size="14" font-weight="bold" lengthAdjust="spacingAndGlyphs" textLength="74" x="18" y="92.5352">character1</text><!--entity legs--><rect fill="#FEFECE" filter="url(#f67im0e4jdcl9)" height="36.4883" style="stroke: #A80036; stroke-width: 1.5;" width="48" x="22" y="104"/><rect fill="#FEFECE" height="5" style="stroke: #A80036; stroke-width: 1.5;" width="10" x="17" y="109"/><rect fill="#FEFECE" height="5" style="stroke: #A80036; stroke-width: 1.5;" width="10" x="17" y="130.4883"/><text fill="#000000" font-family="sans-serif" font-size="14" lengthAdjust="spacingAndGlyphs" textLength="28" x="32" y="127.5352">legs</text><!--entity torso--><rect fill="#FEFECE" filter="url(#f67im0e4jdcl9)" height="36.4883" style="stroke: #A80036; stroke-width: 1.5;" width="56" x="105" y="104"/><rect fill="#FEFECE" height="5" style="stroke: #A80036; stroke-width: 1.5;" width="10" x="100" y="109"/><rect fill="#FEFECE" height="5" style="stroke: #A80036; stroke-width: 1.5;" width="10" x="100" y="130.4883"/><text fill="#000000" font-family="sans-serif" font-size="14" lengthAdjust="spacingAndGlyphs" textLength="36" x="115" y="127.5352">torso</text><!--entity hand--><rect fill="#FEFECE" filter="url(#f67im0e4jdcl9)" height="36.4883" style="stroke: #A80036; stroke-width: 1.5;" width="55" x="196.5" y="104"/><rect fill="#FEFECE" height="5" style="stroke: #A80036; stroke-width: 1.5;" width="10" x="191.5" y="109"/><rect fill="#FEFECE" height="5" style="stroke: #A80036; stroke-width: 1.5;" width="10" x="191.5" y="130.4883"/><text fill="#000000" font-family="sans-serif" font-size="14" lengthAdjust="spacingAndGlyphs" textLength="35" x="206.5" y="127.5352">hand</text><!--entity shirt--><rect fill="#FEFECE" filter="url(#f67im0e4jdcl9)" height="36.4883" style="stroke: #A80036; stroke-width: 1.5;" width="51" x="107.5" y="200"/><rect fill="#FEFECE" height="5" style="stroke: #A80036; stroke-width: 1.5;" width="10" x="102.5" y="205"/><rect fill="#FEFECE" height="5" style="stroke: #A80036; stroke-width: 1.5;" width="10" x="102.5" y="226.4883"/><text fill="#000000" font-family="sans-serif" font-size="14" lengthAdjust="spacingAndGlyphs" textLength="31" x="117.5" y="223.5352">shirt</text><!--entity pants--><rect fill="#FEFECE" filter="url(#f67im0e4jdcl9)" height="36.4883" style="stroke: #A80036; stroke-width: 1.5;" width="58" x="14" y="200"/><rect fill="#FEFECE" height="5" style="stroke: #A80036; stroke-width: 1.5;" width="10" x="9" y="205"/><rect fill="#FEFECE" height="5" style="stroke: #A80036; stroke-width: 1.5;" width="10" x="9" y="226.4883"/><text fill="#000000" font-family="sans-serif" font-size="14" lengthAdjust="spacingAndGlyphs" textLength="38" x="24" y="223.5352">pants</text><!--entity rat bastard sword--><rect fill="#FEFECE" filter="url(#f67im0e4jdcl9)" height="36.4883" style="stroke: #A80036; stroke-width: 1.5;" width="141" x="193.5" y="200"/><rect fill="#FEFECE" height="5" style="stroke: #A80036; stroke-width: 1.5;" width="10" x="188.5" y="205"/><rect fill="#FEFECE" height="5" style="stroke: #A80036; stroke-width: 1.5;" width="10" x="188.5" y="226.4883"/><text fill="#000000" font-family="sans-serif" font-size="14" lengthAdjust="spacingAndGlyphs" textLength="121" x="203.5" y="223.5352">rat bastard sword</text><!--entity program--><rect fill="#FEFECE" filter="url(#f67im0e4jdcl9)" height="36.4883" style="stroke: #A80036; stroke-width: 1.5;" width="80" x="247" y="8"/><rect fill="#FEFECE" height="5" style="stroke: #A80036; stroke-width: 1.5;" width="10" x="242" y="13"/><rect fill="#FEFECE" height="5" style="stroke: #A80036; stroke-width: 1.5;" width="10" x="242" y="34.4883"/><text fill="#000000" font-family="sans-serif" font-size="14" lengthAdjust="spacingAndGlyphs" textLength="60" x="257" y="31.5352">program</text><!--link program to character1--><path d="M287,44.0569 C287,50.5746 287,58.3187 287,66.3562 C287,68.3656 287,70.3933 287,72.4248 C287,73.4406 287,74.4573 287,75.4731 C287,75.981 287,92.981 287,93.4883 " fill="none" id="program-character1" style="stroke: #A80036; stroke-width: 1.0;"/><polygon fill="#A80036" points="287,76.9959,291,67.9959,287,71.9959,283,67.9959,287,76.9959" style="stroke: #A80036; stroke-width: 1.0;"/><!--link legs to pants--><path d="M45.4357,140.0569 C44.9527,155.5126 44.2542,177.8647 43.729,194.6731 " fill="none" id="legs-pants" style="stroke: #A80036; stroke-width: 1.0;"/><polygon fill="#A80036" points="43.5719,199.6977,47.851,190.827,43.728,194.7001,39.8549,190.5772,43.5719,199.6977" style="stroke: #A80036; stroke-width: 1.0;"/><!--link torso to shirt--><path d="M133,140.0569 C133,155.5126 133,177.8647 133,194.6731 " fill="none" id="torso-shirt" style="stroke: #A80036; stroke-width: 1.0;"/><polygon fill="#A80036" points="133,199.6977,137,190.6977,133,194.6977,129,190.6977,133,199.6977" style="stroke: #A80036; stroke-width: 1.0;"/><!--link hand to rat bastard sword--><path d="M231.5237,140.0569 C237.9636,155.5126 247.277,177.8647 254.2804,194.6731 " fill="none" id="hand-rat bastard sword" style="stroke: #A80036; stroke-width: 1.0;"/><polygon fill="#A80036" points="256.374,199.6977,256.6047,189.8515,254.4509,195.0823,249.2201,192.9285,256.374,199.6977" style="stroke: #A80036; stroke-width: 1.0;"/><!--
@startuml

[shirt]
[pants]
[rat bastard sword]

[program] - -> [character1]
package character1 {
  [legs] - -> [pants]
  [torso] - -> [shirt]
  [hand] - -> [rat bastard sword]
}

@enduml

PlantUML version 1.2018.01(Sun Jan 28 10:08:22 PST 2018)
(GPL source distribution)
Java Runtime: Java(TM) SE Runtime Environment
JVM: Java HotSpot(TM) 64-Bit Server VM
Java Version: 1.8.0_121-b13
Operating System: Mac OS X
OS Version: 10.13.3
Default Encoding: UTF-8
Language: en
Country: US
--></g></svg>