<svg xmlns="http://www.w3.org/2000/svg" xmlns:xlink="http://www.w3.org/1999/xlink" contentStyleType="text/css" data-diagram-type="DESCRIPTION" height="538px" preserveAspectRatio="none" style="width:444px;height:538px;background:#000000;" version="1.1" viewBox="0 0 444 538" width="444px" zoomAndPan="magnify"><defs/><g><!--entity lmic--><g class="entity" data-entity="lmic" data-source-line="3" data-uid="ent0002" id="entity_lmic"><ellipse cx="37.83" cy="14" fill="#0E0E0E" rx="8" ry="8" style="stroke:#E7E7E7;stroke-width:0.5;"/><text fill="#FFFFFF" font-family="sans-serif" font-size="14" lengthAdjust="spacing" textLength="50.9482" x="12.3559" y="44.5352">left mic</text></g><!--entity rmic--><g class="entity" data-entity="rmic" data-source-line="4" data-uid="ent0003" id="entity_rmic"><ellipse cx="143.83" cy="14" fill="#0E0E0E" rx="8" ry="8" style="stroke:#E7E7E7;stroke-width:0.5;"/><text fill="#FFFFFF" font-family="sans-serif" font-size="14" lengthAdjust="spacing" textLength="61.1475" x="113.2563" y="44.5352">right mic</text></g><!--entity lhead--><g class="entity" data-entity="lhead" data-source-line="5" data-uid="ent0004" id="entity_lhead"><ellipse cx="257.83" cy="498.98" fill="#0E0E0E" rx="8" ry="8" style="stroke:#E7E7E7;stroke-width:0.5;"/><text fill="#FFFFFF" font-family="sans-serif" font-size="14" lengthAdjust="spacing" textLength="79.8643" x="217.8979" y="529.5152">left headset</text></g><!--entity rhead--><g class="entity" data-entity="rhead" data-source-line="6" data-uid="ent0005" id="entity_rhead"><ellipse cx="392.83" cy="498.98" fill="#0E0E0E" rx="8" ry="8" style="stroke:#E7E7E7;stroke-width:0.5;"/><text fill="#FFFFFF" font-family="sans-serif" font-size="14" lengthAdjust="spacing" textLength="90.0635" x="347.7983" y="529.5152">right headset</text></g><!--entity cpu--><g class="entity" data-entity="cpu" data-source-line="7" data-uid="ent0006" id="entity_cpu"><ellipse cx="173.83" cy="256.49" fill="#0E0E0E" rx="8" ry="8" style="stroke:#E7E7E7;stroke-width:0.5;"/><text fill="#FFFFFF" font-family="sans-serif" font-size="14" lengthAdjust="spacing" textLength="65.1055" x="141.2773" y="287.0252">computer</text></g><!--entity thunderbolt-mixer--><g class="entity" data-entity="thunderbolt-mixer" data-source-line="9" data-uid="ent0007" id="entity_thunderbolt-mixer"><rect fill="#0E0E0E" height="46.4883" rx="2.5" ry="2.5" style="stroke:#E7E7E7;stroke-width:0.5;" width="167.668" x="7" y="104"/><rect fill="#0E0E0E" height="10" style="stroke:#E7E7E7;stroke-width:0.5;" width="15" x="154.668" y="109"/><rect fill="#0E0E0E" height="2" style="stroke:#E7E7E7;stroke-width:0.5;" width="4" x="152.668" y="111"/><rect fill="#0E0E0E" height="2" style="stroke:#E7E7E7;stroke-width:0.5;" width="4" x="152.668" y="115"/><text fill="#FFFFFF" font-family="sans-serif" font-size="14" lengthAdjust="spacing" textLength="127.668" x="22" y="137.5352">thunderbolt-mixer</text></g><!--entity 4-to-1-mixer--><g class="entity" data-entity="4-to-1-mixer" data-source-line="10" data-uid="ent0008" id="entity_4-to-1-mixer"><rect fill="#0E0E0E" height="46.4883" rx="2.5" ry="2.5" style="stroke:#E7E7E7;stroke-width:0.5;" width="135.0742" x="23.29" y="362.49"/><rect fill="#0E0E0E" height="10" style="stroke:#E7E7E7;stroke-width:0.5;" width="15" x="138.3642" y="367.49"/><rect fill="#0E0E0E" height="2" style="stroke:#E7E7E7;stroke-width:0.5;" width="4" x="136.3642" y="369.49"/><rect fill="#0E0E0E" height="2" style="stroke:#E7E7E7;stroke-width:0.5;" width="4" x="136.3642" y="373.49"/><text fill="#FFFFFF" font-family="sans-serif" font-size="14" lengthAdjust="spacing" textLength="95.0742" x="38.29" y="396.0252">4-to-1-mixer</text></g><!--entity amp--><g class="entity" data-entity="amp" data-source-line="11" data-uid="ent0009" id="entity_amp"><rect fill="#0E0E0E" height="46.4883" rx="2.5" ry="2.5" style="stroke:#E7E7E7;stroke-width:0.5;" width="69.6133" x="291.02" y="362.49"/><rect fill="#0E0E0E" height="10" style="stroke:#E7E7E7;stroke-width:0.5;" width="15" x="340.6333" y="367.49"/><rect fill="#0E0E0E" height="2" style="stroke:#E7E7E7;stroke-width:0.5;" width="4" x="338.6333" y="369.49"/><rect fill="#0E0E0E" height="2" style="stroke:#E7E7E7;stroke-width:0.5;" width="4" x="338.6333" y="373.49"/><text fill="#FFFFFF" font-family="sans-serif" font-size="14" lengthAdjust="spacing" textLength="29.6133" x="306.02" y="396.0252">amp</text></g><!--link lmic to thunderbolt-mixer--><g class="link" data-entity-1="lmic" data-entity-2="thunderbolt-mixer" data-source-line="13" data-uid="lnk10" id="link_lmic_thunderbolt-mixer"><path d="M41.47,22.65 C49.33,39.14 65.5496,73.1832 77.5496,98.3732" fill="none" id="lmic-to-thunderbolt-mixer" style="stroke:#E7E7E7;stroke-width:1;"/><polygon fill="#E7E7E7" points="80.13,103.79,79.8705,93.9446,77.9796,99.276,72.6482,97.3851,80.13,103.79" style="stroke:#E7E7E7;stroke-width:1;"/></g><!--link rmic to thunderbolt-mixer--><g class="link" data-entity-1="rmic" data-entity-2="thunderbolt-mixer" data-source-line="14" data-uid="lnk11" id="link_rmic_thunderbolt-mixer"><path d="M140.19,22.65 C132.33,39.14 116.1104,73.1832 104.1104,98.3732" fill="none" id="rmic-to-thunderbolt-mixer" style="stroke:#E7E7E7;stroke-width:1;"/><polygon fill="#E7E7E7" points="101.53,103.79,109.0118,97.3851,103.6804,99.276,101.7895,93.9446,101.53,103.79" style="stroke:#E7E7E7;stroke-width:1;"/></g><!--link thunderbolt-mixer to 4-to-1-mixer--><g class="link" data-entity-1="thunderbolt-mixer" data-entity-2="4-to-1-mixer" data-source-line="16" data-uid="lnk12" id="link_thunderbolt-mixer_4-to-1-mixer"><path d="M87.63,150.66 C84.94,170.73 81.29,201.01 79.83,227.49 C78.41,253.23 78.41,259.75 79.83,285.49 C81.29,311.97 84.1433,336.3031 86.8333,356.3831" fill="none" id="thunderbolt-mixer-to-4-to-1-mixer" style="stroke:#E7E7E7;stroke-width:1;"/><polygon fill="#E7E7E7" points="87.63,362.33,90.3996,352.8786,86.9661,357.3743,82.4704,353.9408,87.63,362.33" style="stroke:#E7E7E7;stroke-width:1;"/><text fill="#FFFFFF" font-family="sans-serif" font-size="13" lengthAdjust="spacing" textLength="35.1724" x="80.83" y="261.5584">audio</text></g><!--link thunderbolt-mixer to cpu--><g class="link" data-entity-1="thunderbolt-mixer" data-entity-2="cpu" data-source-line="17" data-uid="lnk13" id="link_thunderbolt-mixer_cpu"><path d="M105.48,150.7 C124.37,179.67 153.002,223.5646 165.402,242.5746" fill="none" id="thunderbolt-mixer-to-cpu" style="stroke:#E7E7E7;stroke-width:1;"/><polygon fill="#E7E7E7" points="168.68,247.6,167.1133,237.8766,165.9483,243.4122,160.4127,242.2472,168.68,247.6" style="stroke:#E7E7E7;stroke-width:1;"/><text fill="#FFFFFF" font-family="sans-serif" font-size="13" lengthAdjust="spacing" textLength="74.5977" x="135.82" y="194.0584">thunderbolt</text></g><!--link cpu to 4-to-1-mixer--><g class="link" data-entity-1="cpu" data-entity-2="4-to-1-mixer" data-source-line="18" data-uid="lnk14" id="link_cpu_4-to-1-mixer"><path d="M168.64,265.45 C156.22,284.49 127.6976,328.2143 108.8176,357.1643" fill="none" id="cpu-to-4-to-1-mixer" style="stroke:#E7E7E7;stroke-width:1;"/><polygon fill="#E7E7E7" points="105.54,362.19,113.8068,356.8365,108.2713,358.0019,107.1059,352.4664,105.54,362.19" style="stroke:#E7E7E7;stroke-width:1;"/><text fill="#FFFFFF" font-family="sans-serif" font-size="13" lengthAdjust="spacing" textLength="124.23" x="135.82" y="329.0584">headphone to input</text></g><!--link 4-to-1-mixer to amp--><g class="link" data-entity-1="4-to-1-mixer" data-entity-2="amp" data-source-line="19" data-uid="lnk15" id="link_4-to-1-mixer_amp"><path d="M158.8,385.74 C201.91,385.74 249.9,385.74 284.63,385.74" fill="none" id="4-to-1-mixer-to-amp" style="stroke:#E7E7E7;stroke-width:1;"/><polygon fill="#E7E7E7" points="290.63,385.74,281.63,381.74,285.63,385.74,281.63,389.74,290.63,385.74" style="stroke:#E7E7E7;stroke-width:1;"/><text fill="#FFFFFF" font-family="sans-serif" font-size="13" lengthAdjust="spacing" textLength="96.04" x="176.7" y="379.3084">output to input</text></g><!--link amp to lhead--><g class="link" data-entity-1="amp" data-entity-2="lhead" data-source-line="20" data-uid="lnk16" id="link_amp_lhead"><path d="M312.07,409.25 C296.78,434.26 276.028,468.1999 265.838,484.8799" fill="none" id="amp-to-lhead" style="stroke:#E7E7E7;stroke-width:1;"/><polygon fill="#E7E7E7" points="262.71,490,270.8154,484.4051,265.3166,485.7332,263.9885,480.2345,262.71,490" style="stroke:#E7E7E7;stroke-width:1;"/></g><!--link amp to rhead--><g class="link" data-entity-1="amp" data-entity-2="rhead" data-source-line="21" data-uid="lnk17" id="link_amp_rhead"><path d="M339.39,409.25 C354.45,434.26 374.8858,468.1794 384.9258,484.8594" fill="none" id="amp-to-rhead" style="stroke:#E7E7E7;stroke-width:1;"/><polygon fill="#E7E7E7" points="388.02,490,386.8057,480.2263,385.4415,485.7162,379.9516,484.3519,388.02,490" style="stroke:#E7E7E7;stroke-width:1;"/></g><!--SRC=[VP4z3i8m38NtdCBgdW69YO6BL1r2wfA89evS1t5yabQYfLHiUNwVVpCzV4o6JO10aQnZ2WYCJ-G9bV9Ha0TZ4PeH1u7WRGDcWh4yjYRxkrjTthbpgaFJJoXBUXM_-Lk4zuYba79HisjJLgeLbsEFVADHTF0lv4wrPosaJnzfGkgKgkE2rbSuIk5_vb4JgEnN7xY0oRsdOxhWPTx2R4nL8_geKDqxEOe8Gb3-9ijkgRbztQl0bAK06tAErxhBYLUztFCD]--></g></svg>