<svg xmlns="http://www.w3.org/2000/svg" xmlns:xlink="http://www.w3.org/1999/xlink" contentStyleType="text/css" data-diagram-type="DESCRIPTION" height="110px" preserveAspectRatio="none" style="width:534px;height:110px;background:#FFFFFF;" version="1.1" viewBox="0 0 534 110" width="534px" zoomAndPan="magnify"><defs/><g><!--cluster Auto deploy--><g class="cluster" data-entity="Auto deploy" data-source-line="2" data-uid="ent0002" id="cluster_Auto deploy"><path d="M8.5,6 L96.6445,6 A3.75,3.75 0 0 1 99.1445,8.5 L106.1445,28.4883 L299.5,28.4883 A2.5,2.5 0 0 1 302,30.9883 L302,100.99 A2.5,2.5 0 0 1 299.5,103.49 L8.5,103.49 A2.5,2.5 0 0 1 6,100.99 L6,8.5 A2.5,2.5 0 0 1 8.5,6" fill="none" style="stroke:#000000;stroke-width:1.5;"/><line style="stroke:#000000;stroke-width:1.5;" x1="6" x2="106.1445" y1="28.4883" y2="28.4883"/><text fill="#000000" font-family="sans-serif" font-size="14" font-weight="bold" lengthAdjust="spacing" textLength="87.1445" x="10" y="21.5352">Auto deploy</text></g><!--cluster Gated deployment--><g class="cluster" data-entity="Gated deployment" data-source-line="7" data-uid="ent0008" id="cluster_Gated deployment"><path d="M328.5,6 L460.9961,6 A3.75,3.75 0 0 1 463.4961,8.5 L470.4961,28.4883 L524.5,28.4883 A2.5,2.5 0 0 1 527,30.9883 L527,100.99 A2.5,2.5 0 0 1 524.5,103.49 L328.5,103.49 A2.5,2.5 0 0 1 326,100.99 L326,8.5 A2.5,2.5 0 0 1 328.5,6" fill="none" style="stroke:#000000;stroke-width:1.5;"/><line style="stroke:#000000;stroke-width:1.5;" x1="326" x2="470.4961" y1="28.4883" y2="28.4883"/><text fill="#000000" font-family="sans-serif" font-size="14" font-weight="bold" lengthAdjust="spacing" textLength="131.4961" x="330" y="21.5352">Gated deployment</text></g><!--entity local--><g class="entity" data-entity="local" data-source-line="3" data-uid="ent0003" id="entity_local"><rect fill="#F1F1F1" height="46.4883" rx="2.5" ry="2.5" style="stroke:#181818;stroke-width:0.5;" width="71.5957" x="22.2" y="41"/><rect fill="#F1F1F1" height="10" style="stroke:#181818;stroke-width:0.5;" width="15" x="73.7957" y="46"/><rect fill="#F1F1F1" height="2" style="stroke:#181818;stroke-width:0.5;" width="4" x="71.7957" y="48"/><rect fill="#F1F1F1" height="2" style="stroke:#181818;stroke-width:0.5;" width="4" x="71.7957" y="52"/><text fill="#000000" font-family="sans-serif" font-size="14" lengthAdjust="spacing" textLength="31.5957" x="37.2" y="74.5352">local</text></g><!--entity dev--><g class="entity" data-entity="dev" data-source-line="3" data-uid="ent0004" id="entity_dev"><rect fill="#F1F1F1" height="46.4883" rx="2.5" ry="2.5" style="stroke:#181818;stroke-width:0.5;" width="63.8574" x="129.07" y="41"/><rect fill="#F1F1F1" height="10" style="stroke:#181818;stroke-width:0.5;" width="15" x="172.9274" y="46"/><rect fill="#F1F1F1" height="2" style="stroke:#181818;stroke-width:0.5;" width="4" x="170.9274" y="48"/><rect fill="#F1F1F1" height="2" style="stroke:#181818;stroke-width:0.5;" width="4" x="170.9274" y="52"/><text fill="#000000" font-family="sans-serif" font-size="14" lengthAdjust="spacing" textLength="23.8574" x="144.07" y="74.5352">dev</text></g><!--entity int--><g class="entity" data-entity="int" data-source-line="4" data-uid="ent0006" id="entity_int"><rect fill="#F1F1F1" height="46.4883" rx="2.5" ry="2.5" style="stroke:#181818;stroke-width:0.5;" width="57.9717" x="228.01" y="41"/><rect fill="#F1F1F1" height="10" style="stroke:#181818;stroke-width:0.5;" width="15" x="265.9817" y="46"/><rect fill="#F1F1F1" height="2" style="stroke:#181818;stroke-width:0.5;" width="4" x="263.9817" y="48"/><rect fill="#F1F1F1" height="2" style="stroke:#181818;stroke-width:0.5;" width="4" x="263.9817" y="52"/><text fill="#000000" font-family="sans-serif" font-size="14" lengthAdjust="spacing" textLength="17.9717" x="243.01" y="74.5352">int</text></g><!--entity stg--><g class="entity" data-entity="stg" data-source-line="8" data-uid="ent0009" id="entity_stg"><rect fill="#F1F1F1" height="46.4883" rx="2.5" ry="2.5" style="stroke:#181818;stroke-width:0.5;" width="61.1025" x="342.45" y="41"/><rect fill="#F1F1F1" height="10" style="stroke:#181818;stroke-width:0.5;" width="15" x="383.5525" y="46"/><rect fill="#F1F1F1" height="2" style="stroke:#181818;stroke-width:0.5;" width="4" x="381.5525" y="48"/><rect fill="#F1F1F1" height="2" style="stroke:#181818;stroke-width:0.5;" width="4" x="381.5525" y="52"/><text fill="#000000" font-family="sans-serif" font-size="14" lengthAdjust="spacing" textLength="21.1025" x="357.45" y="74.5352">stg</text></g><!--entity prod--><g class="entity" data-entity="prod" data-source-line="9" data-uid="ent0011" id="entity_prod"><rect fill="#F1F1F1" height="46.4883" rx="2.5" ry="2.5" style="stroke:#181818;stroke-width:0.5;" width="71.9512" x="439.02" y="41"/><rect fill="#F1F1F1" height="10" style="stroke:#181818;stroke-width:0.5;" width="15" x="490.9712" y="46"/><rect fill="#F1F1F1" height="2" style="stroke:#181818;stroke-width:0.5;" width="4" x="488.9712" y="48"/><rect fill="#F1F1F1" height="2" style="stroke:#181818;stroke-width:0.5;" width="4" x="488.9712" y="52"/><text fill="#000000" font-family="sans-serif" font-size="14" lengthAdjust="spacing" textLength="31.9512" x="454.02" y="74.5352">prod</text></g><!--link local to dev--><g class="link" data-entity-1="local" data-entity-2="dev" data-source-line="3" data-uid="lnk5" id="link_local_dev"><path d="M94.21,64.25 C105.69,64.25 111.17,64.25 122.65,64.25" fill="none" id="local-to-dev" style="stroke:#181818;stroke-width:1;"/><polygon fill="#181818" points="128.65,64.25,119.65,60.25,123.65,64.25,119.65,68.25,128.65,64.25" style="stroke:#181818;stroke-width:1;"/></g><!--link dev to int--><g class="link" data-entity-1="dev" data-entity-2="int" data-source-line="4" data-uid="lnk7" id="link_dev_int"><path d="M193.25,64.25 C204.71,64.25 210.16,64.25 221.62,64.25" fill="none" id="dev-to-int" style="stroke:#181818;stroke-width:1;"/><polygon fill="#181818" points="227.62,64.25,218.62,60.25,222.62,64.25,218.62,68.25,227.62,64.25" style="stroke:#181818;stroke-width:1;"/></g><!--link int to stg--><g class="link" data-entity-1="int" data-entity-2="stg" data-source-line="8" data-uid="lnk10" id="link_int_stg"><path d="M286.45,77.46 C305.05,82.96 317.8656,84.7099 336.4656,79.4599" fill="none" id="int-to-stg" style="stroke:#181818;stroke-width:1;"/><polygon fill="#181818" points="342.24,77.83,332.4918,76.4252,337.428,79.1882,334.665,84.1244,342.24,77.83" style="stroke:#181818;stroke-width:1;"/></g><!--link stg to prod--><g class="link" data-entity-1="stg" data-entity-2="prod" data-source-line="9" data-uid="lnk12" id="link_stg_prod"><path d="M403.68,64.25 C415.38,64.25 421.08,64.25 432.78,64.25" fill="none" id="stg-to-prod" style="stroke:#181818;stroke-width:1;"/><polygon fill="#181818" points="438.78,64.25,429.78,60.25,433.78,64.25,429.78,68.25,438.78,64.25" style="stroke:#181818;stroke-width:1;"/></g><!--SRC=[AqXCpavCJrLGSYmjoLT8IIt8oQzKKgZcKb28pibFJio9LT2rKuXEIIsB1Gc1QB10Pbv9B5Sj5rS1JBjxOabg2bH_RcfU2TGCa3gmXkAITB0981eiK52Kdm8o0W00]--></g></svg>