<svg xmlns="http://www.w3.org/2000/svg" xmlns:xlink="http://www.w3.org/1999/xlink" contentStyleType="text/css" data-diagram-type="DESCRIPTION" height="279px" preserveAspectRatio="none" style="width:408px;height:279px;background:#FFFFFF;" version="1.1" viewBox="0 0 408 279" width="408px" zoomAndPan="magnify"><defs/><g><!--cluster character1--><g class="cluster" data-entity="character1" data-source-line="6" data-uid="ent0006" id="cluster_character1"><path d="M8.5,77.48 L85.8984,77.48 A3.75,3.75 0 0 1 88.3984,79.98 L95.3984,99.9683 L358.5,99.9683 A2.5,2.5 0 0 1 361,102.4683 L361,188.47 A2.5,2.5 0 0 1 358.5,190.97 L8.5,190.97 A2.5,2.5 0 0 1 6,188.47 L6,79.98 A2.5,2.5 0 0 1 8.5,77.48" fill="none" style="stroke:#000000;stroke-width:1.5;"/><line style="stroke:#000000;stroke-width:1.5;" x1="6" x2="95.3984" y1="99.9683" y2="99.9683"/><text fill="#000000" font-family="sans-serif" font-size="14" font-weight="bold" lengthAdjust="spacing" textLength="76.3984" x="10" y="93.0152">character1</text></g><!--entity legs--><g class="entity" data-entity="legs" data-source-line="8" data-uid="ent0008" id="entity_legs"><rect fill="#F1F1F1" height="46.4883" rx="2.5" ry="2.5" style="stroke:#181818;stroke-width:0.5;" width="67.7129" x="30.14" y="120.48"/><rect fill="#F1F1F1" height="10" style="stroke:#181818;stroke-width:0.5;" width="15" x="77.8529" y="125.48"/><rect fill="#F1F1F1" height="2" style="stroke:#181818;stroke-width:0.5;" width="4" x="75.8529" y="127.48"/><rect fill="#F1F1F1" height="2" style="stroke:#181818;stroke-width:0.5;" width="4" x="75.8529" y="131.48"/><text fill="#000000" font-family="sans-serif" font-size="14" lengthAdjust="spacing" textLength="27.7129" x="45.14" y="154.0152">legs</text></g><!--entity torso--><g class="entity" data-entity="torso" data-source-line="9" data-uid="ent0010" id="entity_torso"><rect fill="#F1F1F1" height="46.4883" rx="2.5" ry="2.5" style="stroke:#181818;stroke-width:0.5;" width="75.3008" x="133.35" y="120.48"/><rect fill="#F1F1F1" height="10" style="stroke:#181818;stroke-width:0.5;" width="15" x="188.6508" y="125.48"/><rect fill="#F1F1F1" height="2" style="stroke:#181818;stroke-width:0.5;" width="4" x="186.6508" y="127.48"/><rect fill="#F1F1F1" height="2" style="stroke:#181818;stroke-width:0.5;" width="4" x="186.6508" y="131.48"/><text fill="#000000" font-family="sans-serif" font-size="14" lengthAdjust="spacing" textLength="35.3008" x="148.35" y="154.0152">torso</text></g><!--entity hand--><g class="entity" data-entity="hand" data-source-line="10" data-uid="ent0012" id="entity_hand"><rect fill="#F1F1F1" height="46.4883" rx="2.5" ry="2.5" style="stroke:#181818;stroke-width:0.5;" width="73.9199" x="244.04" y="120.48"/><rect fill="#F1F1F1" height="10" style="stroke:#181818;stroke-width:0.5;" width="15" x="297.9599" y="125.48"/><rect fill="#F1F1F1" height="2" style="stroke:#181818;stroke-width:0.5;" width="4" x="295.9599" y="127.48"/><rect fill="#F1F1F1" height="2" style="stroke:#181818;stroke-width:0.5;" width="4" x="295.9599" y="131.48"/><text fill="#000000" font-family="sans-serif" font-size="14" lengthAdjust="spacing" textLength="33.9199" x="259.04" y="154.0152">hand</text></g><!--entity shirt--><g class="entity" data-entity="shirt" data-source-line="2" data-uid="ent0002" id="entity_shirt"><rect fill="#F1F1F1" height="46.4883" rx="2.5" ry="2.5" style="stroke:#181818;stroke-width:0.5;" width="70.8369" x="135.58" y="226.97"/><rect fill="#F1F1F1" height="10" style="stroke:#181818;stroke-width:0.5;" width="15" x="186.4169" y="231.97"/><rect fill="#F1F1F1" height="2" style="stroke:#181818;stroke-width:0.5;" width="4" x="184.4169" y="233.97"/><rect fill="#F1F1F1" height="2" style="stroke:#181818;stroke-width:0.5;" width="4" x="184.4169" y="237.97"/><text fill="#000000" font-family="sans-serif" font-size="14" lengthAdjust="spacing" textLength="30.8369" x="150.58" y="260.5052">shirt</text></g><!--entity pants--><g class="entity" data-entity="pants" data-source-line="3" data-uid="ent0003" id="entity_pants"><rect fill="#F1F1F1" height="46.4883" rx="2.5" ry="2.5" style="stroke:#181818;stroke-width:0.5;" width="77.6045" x="23.2" y="226.97"/><rect fill="#F1F1F1" height="10" style="stroke:#181818;stroke-width:0.5;" width="15" x="80.8045" y="231.97"/><rect fill="#F1F1F1" height="2" style="stroke:#181818;stroke-width:0.5;" width="4" x="78.8045" y="233.97"/><rect fill="#F1F1F1" height="2" style="stroke:#181818;stroke-width:0.5;" width="4" x="78.8045" y="237.97"/><text fill="#000000" font-family="sans-serif" font-size="14" lengthAdjust="spacing" textLength="37.6045" x="38.2" y="260.5052">pants</text></g><!--entity rat bastard sword--><g class="entity" data-entity="rat bastard sword" data-source-line="4" data-uid="ent0004" id="entity_rat bastard sword"><rect fill="#F1F1F1" height="46.4883" rx="2.5" ry="2.5" style="stroke:#181818;stroke-width:0.5;" width="159.8066" x="241.1" y="226.97"/><rect fill="#F1F1F1" height="10" style="stroke:#181818;stroke-width:0.5;" width="15" x="380.9066" y="231.97"/><rect fill="#F1F1F1" height="2" style="stroke:#181818;stroke-width:0.5;" width="4" x="378.9066" y="233.97"/><rect fill="#F1F1F1" height="2" style="stroke:#181818;stroke-width:0.5;" width="4" x="378.9066" y="237.97"/><text fill="#000000" font-family="sans-serif" font-size="14" lengthAdjust="spacing" textLength="119.8066" x="256.1" y="260.5052">rat bastard sword</text></g><!--entity program--><g class="entity" data-entity="program" data-source-line="6" data-uid="ent0005" id="entity_program"><rect fill="#F1F1F1" height="46.4883" rx="2.5" ry="2.5" style="stroke:#181818;stroke-width:0.5;" width="98.3994" x="303.8" y="7"/><rect fill="#F1F1F1" height="10" style="stroke:#181818;stroke-width:0.5;" width="15" x="382.1994" y="12"/><rect fill="#F1F1F1" height="2" style="stroke:#181818;stroke-width:0.5;" width="4" x="380.1994" y="14"/><rect fill="#F1F1F1" height="2" style="stroke:#181818;stroke-width:0.5;" width="4" x="380.1994" y="18"/><text fill="#000000" font-family="sans-serif" font-size="14" lengthAdjust="spacing" textLength="58.3994" x="318.8" y="40.5352">program</text></g><!--link program to character1--><g class="link" data-entity-1="program" data-entity-2="character1" data-source-line="6" data-uid="lnk7" id="link_program_character1"><path d="M353,53.8 C353,57.745 353,62.0386 353,66.5385 C353,68.7884 353,71.09 353,73.4253 C353,74.593 353,75.7691 353,76.9514 C353,77.0992 353,93.7354 353,93.8833" fill="none" id="program-to-character1" style="stroke:#181818;stroke-width:1;"/><polygon fill="#181818" points="353,99.8833,357,90.8833,353,94.8833,349,90.8833,353,99.8833" style="stroke:#181818;stroke-width:1;"/></g><!--link legs to pants--><g class="link" data-entity-1="legs" data-entity-2="pants" data-source-line="8" data-uid="lnk9" id="link_legs_pants"><path d="M63.57,167.4 C63.23,184.93 62.8864,203.0711 62.5464,220.5911" fill="none" id="legs-to-pants" style="stroke:#181818;stroke-width:1;"/><polygon fill="#181818" points="62.43,226.59,66.6039,217.6693,62.527,221.5909,58.6054,217.5141,62.43,226.59" style="stroke:#181818;stroke-width:1;"/></g><!--link torso to shirt--><g class="link" data-entity-1="torso" data-entity-2="shirt" data-source-line="9" data-uid="lnk11" id="link_torso_shirt"><path d="M171,167.4 C171,184.93 171,203.07 171,220.59" fill="none" id="torso-to-shirt" style="stroke:#181818;stroke-width:1;"/><polygon fill="#181818" points="171,226.59,175,217.59,171,221.59,167,217.59,171,226.59" style="stroke:#181818;stroke-width:1;"/></g><!--link hand to rat bastard sword--><g class="link" data-entity-1="hand" data-entity-2="rat bastard sword" data-source-line="10" data-uid="lnk13" id="link_hand_rat bastard sword"><path d="M289.68,167.4 C296.39,184.93 303.4841,203.4669 310.1941,220.9869" fill="none" id="hand-to-rat bastard sword" style="stroke:#181818;stroke-width:1;"/><polygon fill="#181818" points="312.34,226.59,312.8565,216.7547,310.5517,221.9207,305.3857,219.616,312.34,226.59" style="stroke:#181818;stroke-width:1;"/></g><!--SRC=[RSqn3W8n30J0tg_m1wxW0tmaIh4aKO8EBgUr9Gh4tqbXYOPgfLdBcspSwLdIYSDj9U5wWpbOrLwJDSigEJlnpBfjLqrbW2ZUUCboekpeJN-cRr5DZzOjpkFpGf-q6HgxImUE6lXd_2DV]--></g></svg>