<svg xmlns="http://www.w3.org/2000/svg" xmlns:xlink="http://www.w3.org/1999/xlink" contentStyleType="text/css" data-diagram-type="DESCRIPTION" height="357px" preserveAspectRatio="none" style="width:654px;height:357px;background:#FFFFFF;" version="1.1" viewBox="0 0 654 357" width="654px" zoomAndPan="magnify"><defs/><g><!--cluster rat bastard sword--><g class="cluster" data-entity="rat bastard sword" data-source-line="4" data-uid="ent0005" id="cluster_rat bastard sword"><path d="M462.7,237.03 L592.742,237.03 A3.75,3.75 0 0 1 595.242,239.53 L602.242,259.5183 L628.7,259.5183 A2.5,2.5 0 0 1 631.2,262.0183 L631.2,348.02 A2.5,2.5 0 0 1 628.7,350.52 L462.7,350.52 A2.5,2.5 0 0 1 460.2,348.02 L460.2,239.53 A2.5,2.5 0 0 1 462.7,237.03" fill="none" style="stroke:#000000;stroke-width:1.5;"/><line style="stroke:#000000;stroke-width:1.5;" x1="460.2" x2="602.242" y1="259.5183" y2="259.5183"/><text fill="#000000" font-family="sans-serif" font-size="14" font-weight="bold" lengthAdjust="spacing" textLength="129.042" x="464.2" y="252.5652">rat bastard sword</text></g><!--cluster character1--><g class="cluster" data-entity="character1" data-source-line="9" data-uid="ent0010" id="cluster_character1"><path d="M131.7,83.54 L209.0984,83.54 A3.75,3.75 0 0 1 211.5984,86.04 L218.5984,106.0283 L481.7,106.0283 A2.5,2.5 0 0 1 484.2,108.5283 L484.2,194.53 A2.5,2.5 0 0 1 481.7,197.03 L131.7,197.03 A2.5,2.5 0 0 1 129.2,194.53 L129.2,86.04 A2.5,2.5 0 0 1 131.7,83.54" fill="none" style="stroke:#000000;stroke-width:1.5;"/><line style="stroke:#000000;stroke-width:1.5;" x1="129.2" x2="218.5984" y1="106.0283" y2="106.0283"/><text fill="#000000" font-family="sans-serif" font-size="14" font-weight="bold" lengthAdjust="spacing" textLength="76.3984" x="133.2" y="99.0752">character1</text></g><!--entity container--><g class="entity" data-entity="container" data-source-line="6" data-uid="ent0007" id="entity_container"><rect fill="#F1F1F1" height="46.4883" rx="2.5" ry="2.5" style="stroke:#181818;stroke-width:0.5;" width="103.6904" x="484.35" y="280.03"/><rect fill="#F1F1F1" height="10" style="stroke:#181818;stroke-width:0.5;" width="15" x="568.0404" y="285.03"/><rect fill="#F1F1F1" height="2" style="stroke:#181818;stroke-width:0.5;" width="4" x="566.0404" y="287.03"/><rect fill="#F1F1F1" height="2" style="stroke:#181818;stroke-width:0.5;" width="4" x="566.0404" y="291.03"/><text fill="#000000" font-family="sans-serif" font-size="14" lengthAdjust="spacing" textLength="63.6904" x="499.35" y="313.5652">container</text></g><!--entity legs--><g class="entity" data-entity="legs" data-source-line="11" data-uid="ent0012" id="entity_legs"><rect fill="#F1F1F1" height="46.4883" rx="2.5" ry="2.5" style="stroke:#181818;stroke-width:0.5;" width="67.7129" x="153.34" y="126.54"/><rect fill="#F1F1F1" height="10" style="stroke:#181818;stroke-width:0.5;" width="15" x="201.0529" y="131.54"/><rect fill="#F1F1F1" height="2" style="stroke:#181818;stroke-width:0.5;" width="4" x="199.0529" y="133.54"/><rect fill="#F1F1F1" height="2" style="stroke:#181818;stroke-width:0.5;" width="4" x="199.0529" y="137.54"/><text fill="#000000" font-family="sans-serif" font-size="14" lengthAdjust="spacing" textLength="27.7129" x="168.34" y="160.0752">legs</text></g><!--entity torso--><g class="entity" data-entity="torso" data-source-line="12" data-uid="ent0014" id="entity_torso"><rect fill="#F1F1F1" height="46.4883" rx="2.5" ry="2.5" style="stroke:#181818;stroke-width:0.5;" width="75.3008" x="256.55" y="126.54"/><rect fill="#F1F1F1" height="10" style="stroke:#181818;stroke-width:0.5;" width="15" x="311.8508" y="131.54"/><rect fill="#F1F1F1" height="2" style="stroke:#181818;stroke-width:0.5;" width="4" x="309.8508" y="133.54"/><rect fill="#F1F1F1" height="2" style="stroke:#181818;stroke-width:0.5;" width="4" x="309.8508" y="137.54"/><text fill="#000000" font-family="sans-serif" font-size="14" lengthAdjust="spacing" textLength="35.3008" x="271.55" y="160.0752">torso</text></g><!--entity hand--><g class="entity" data-entity="hand" data-source-line="13" data-uid="ent0016" id="entity_hand"><rect fill="#F1F1F1" height="46.4883" rx="2.5" ry="2.5" style="stroke:#181818;stroke-width:0.5;" width="73.9199" x="367.24" y="126.54"/><rect fill="#F1F1F1" height="10" style="stroke:#181818;stroke-width:0.5;" width="15" x="421.1599" y="131.54"/><rect fill="#F1F1F1" height="2" style="stroke:#181818;stroke-width:0.5;" width="4" x="419.1599" y="133.54"/><rect fill="#F1F1F1" height="2" style="stroke:#181818;stroke-width:0.5;" width="4" x="419.1599" y="137.54"/><text fill="#000000" font-family="sans-serif" font-size="14" lengthAdjust="spacing" textLength="33.9199" x="382.24" y="160.0752">hand</text></g><!--entity shirt--><g class="entity" data-entity="shirt" data-source-line="1" data-uid="ent0002" id="entity_shirt"><rect fill="#F1F1F1" height="46.4883" rx="2.5" ry="2.5" style="stroke:#181818;stroke-width:0.5;" width="70.8369" x="259.78" y="280.03"/><rect fill="#F1F1F1" height="10" style="stroke:#181818;stroke-width:0.5;" width="15" x="310.6169" y="285.03"/><rect fill="#F1F1F1" height="2" style="stroke:#181818;stroke-width:0.5;" width="4" x="308.6169" y="287.03"/><rect fill="#F1F1F1" height="2" style="stroke:#181818;stroke-width:0.5;" width="4" x="308.6169" y="291.03"/><text fill="#000000" font-family="sans-serif" font-size="14" lengthAdjust="spacing" textLength="30.8369" x="274.78" y="313.5652">shirt</text></g><!--entity pants--><g class="entity" data-entity="pants" data-source-line="2" data-uid="ent0003" id="entity_pants"><rect fill="#F1F1F1" height="46.4883" rx="2.5" ry="2.5" style="stroke:#181818;stroke-width:0.5;" width="77.6045" x="147.4" y="280.03"/><rect fill="#F1F1F1" height="10" style="stroke:#181818;stroke-width:0.5;" width="15" x="205.0045" y="285.03"/><rect fill="#F1F1F1" height="2" style="stroke:#181818;stroke-width:0.5;" width="4" x="203.0045" y="287.03"/><rect fill="#F1F1F1" height="2" style="stroke:#181818;stroke-width:0.5;" width="4" x="203.0045" y="291.03"/><text fill="#000000" font-family="sans-serif" font-size="14" lengthAdjust="spacing" textLength="37.6045" x="162.4" y="313.5652">pants</text></g><!--entity treasure chest--><g class="entity" data-entity="treasure chest" data-source-line="4" data-uid="ent0004" id="entity_treasure chest"><rect fill="#F1F1F1" height="46.4883" rx="2.5" ry="2.5" style="stroke:#181818;stroke-width:0.5;" width="136.3115" x="512.04" y="126.54"/><rect fill="#F1F1F1" height="10" style="stroke:#181818;stroke-width:0.5;" width="15" x="628.3515" y="131.54"/><rect fill="#F1F1F1" height="2" style="stroke:#181818;stroke-width:0.5;" width="4" x="626.3515" y="133.54"/><rect fill="#F1F1F1" height="2" style="stroke:#181818;stroke-width:0.5;" width="4" x="626.3515" y="137.54"/><text fill="#000000" font-family="sans-serif" font-size="14" lengthAdjust="spacing" textLength="96.3115" x="527.04" y="160.0752">treasure chest</text></g><!--entity program--><g class="entity" data-entity="program" data-source-line="9" data-uid="ent0009" id="entity_program"><rect fill="#F1F1F1" height="46.4883" rx="2.5" ry="2.5" style="stroke:#181818;stroke-width:0.5;" width="98.3994" x="7" y="126.54"/><rect fill="#F1F1F1" height="10" style="stroke:#181818;stroke-width:0.5;" width="15" x="85.3994" y="131.54"/><rect fill="#F1F1F1" height="2" style="stroke:#181818;stroke-width:0.5;" width="4" x="83.3994" y="133.54"/><rect fill="#F1F1F1" height="2" style="stroke:#181818;stroke-width:0.5;" width="4" x="83.3994" y="137.54"/><text fill="#000000" font-family="sans-serif" font-size="14" lengthAdjust="spacing" textLength="58.3994" x="22" y="160.0752">program</text></g><!--link treasure chest to rat bastard sword--><g class="link" data-entity-1="treasure chest" data-entity-2="rat bastard sword" data-source-line="4" data-uid="lnk6" id="link_treasure chest_rat bastard sword"><path d="M588.56,173.38 C593.46,187.07 599.58,204.93 604.2,221.03 C605.4388,225.3462 606.6561,229.8086 607.839,234.3183 C607.9869,234.8821 608.1342,235.4465 608.281,236.0115 C608.3544,236.294 606.9258,253.2559 606.9989,253.5387" fill="none" id="treasure chest-to-rat bastard sword" style="stroke:#181818;stroke-width:1;"/><polygon fill="#181818" points="608.5007,259.3477,610.1207,249.633,607.2492,254.5069,602.3754,251.6354,608.5007,259.3477" style="stroke:#181818;stroke-width:1;"/></g><!--link container to treasure chest--><g class="link" data-entity-1="container" data-entity-2="treasure chest" data-source-line="6" data-uid="lnk8" id="link_container_treasure chest"><path d="M542.69,279.94 C550.98,251.37 563.5968,207.952 571.9368,179.232" fill="none" id="container-to-treasure chest" style="stroke:#181818;stroke-width:1;"/><polygon fill="#181818" points="573.61,173.47,567.2589,180.9975,572.2157,178.2716,574.9415,183.2284,573.61,173.47" style="stroke:#181818;stroke-width:1;"/></g><!--link program to character1--><g class="link" data-entity-1="program" data-entity-2="character1" data-source-line="9" data-uid="lnk11" id="link_program_character1"><path d="M68.49,126.45 C84.29,99.26 114.55,55.73 154.7,37.54 C212.39,11.41 384.78,6 439.7,37.54 C450.54,43.7675 458.2863,53.4006 463.7977,64.4627 C466.5534,69.9937 468.7504,75.8819 470.496,81.8803 C470.6051,82.2552 469.0889,99.3426 469.1945,99.7183" fill="none" id="program-to-character1" style="stroke:#181818;stroke-width:1;"/><polygon fill="#181818" points="470.818,105.4945,472.2334,95.7479,469.4651,100.681,464.5319,97.9127,470.818,105.4945" style="stroke:#181818;stroke-width:1;"/></g><!--link legs to pants--><g class="link" data-entity-1="legs" data-entity-2="pants" data-source-line="11" data-uid="lnk13" id="link_legs_pants"><path d="M187.05,173.47 C186.86,202.19 186.5799,245.3701 186.3899,273.9401" fill="none" id="legs-to-pants" style="stroke:#181818;stroke-width:1;"/><polygon fill="#181818" points="186.35,279.94,190.4098,270.9668,186.3833,274.9401,182.4099,270.9136,186.35,279.94" style="stroke:#181818;stroke-width:1;"/></g><!--link torso to shirt--><g class="link" data-entity-1="torso" data-entity-2="shirt" data-source-line="12" data-uid="lnk15" id="link_torso_shirt"><path d="M294.35,173.47 C294.54,202.19 294.8201,245.3701 295.0101,273.9401" fill="none" id="torso-to-shirt" style="stroke:#181818;stroke-width:1;"/><polygon fill="#181818" points="295.05,279.94,298.9901,270.9136,295.0167,274.9401,290.9902,270.9668,295.05,279.94" style="stroke:#181818;stroke-width:1;"/></g><!--SRC=[POz12W8n34NtFKMO_IoyW1SfNNpRq0vgMvA82_7kTh0meDltF-ydNiic5fplgAR1EM_2q8SmnS9gWTRrJ5vWT84Q994-cwJWEk8LcMdvonPwEI8VMpLibMKwViJkFSQwj2ouZyOen091D9RJOJ_OLthZhDCtBnxGccYRTFupQ45D-ye7]--></g></svg>