<svg xmlns="http://www.w3.org/2000/svg" xmlns:xlink="http://www.w3.org/1999/xlink" contentStyleType="text/css" data-diagram-type="DESCRIPTION" height="119px" preserveAspectRatio="none" style="width:703px;height:119px;background:#FFFFFF;" version="1.1" viewBox="0 0 703 119" width="703px" zoomAndPan="magnify"><defs/><g><!--entity program--><g class="entity" data-entity="program" data-source-line="1" data-uid="ent0002" id="entity_program"><rect fill="#F1F1F1" height="46.4883" rx="2.5" ry="2.5" style="stroke:#181818;stroke-width:0.5;" width="98.3994" x="598.63" y="66.85"/><rect fill="#F1F1F1" height="10" style="stroke:#181818;stroke-width:0.5;" width="15" x="677.0294" y="71.85"/><rect fill="#F1F1F1" height="2" style="stroke:#181818;stroke-width:0.5;" width="4" x="675.0294" y="73.85"/><rect fill="#F1F1F1" height="2" style="stroke:#181818;stroke-width:0.5;" width="4" x="675.0294" y="77.85"/><text fill="#000000" font-family="sans-serif" font-size="14" lengthAdjust="spacing" textLength="58.3994" x="613.63" y="100.3852">program</text></g><!--entity A--><g class="entity" data-entity="A" data-source-line="2" data-uid="ent0003" id="entity_A"><rect fill="#F1F1F1" height="46.4883" rx="2.5" ry="2.5" style="stroke:#181818;stroke-width:0.5;" width="49.6592" x="7" y="66.85"/><rect fill="#F1F1F1" height="10" style="stroke:#181818;stroke-width:0.5;" width="15" x="36.6592" y="71.85"/><rect fill="#F1F1F1" height="2" style="stroke:#181818;stroke-width:0.5;" width="4" x="34.6592" y="73.85"/><rect fill="#F1F1F1" height="2" style="stroke:#181818;stroke-width:0.5;" width="4" x="34.6592" y="77.85"/><text fill="#000000" font-family="sans-serif" font-size="14" lengthAdjust="spacing" textLength="9.6592" x="22" y="100.3852">A</text></g><!--entity B--><g class="entity" data-entity="B" data-source-line="2" data-uid="ent0004" id="entity_B"><rect fill="#F1F1F1" height="46.4883" rx="2.5" ry="2.5" style="stroke:#181818;stroke-width:0.5;" width="48.0527" x="91.8" y="66.85"/><rect fill="#F1F1F1" height="10" style="stroke:#181818;stroke-width:0.5;" width="15" x="119.8527" y="71.85"/><rect fill="#F1F1F1" height="2" style="stroke:#181818;stroke-width:0.5;" width="4" x="117.8527" y="73.85"/><rect fill="#F1F1F1" height="2" style="stroke:#181818;stroke-width:0.5;" width="4" x="117.8527" y="77.85"/><text fill="#000000" font-family="sans-serif" font-size="14" lengthAdjust="spacing" textLength="8.0527" x="106.8" y="100.3852">B</text></g><!--entity C--><g class="entity" data-entity="C" data-source-line="3" data-uid="ent0006" id="entity_C"><rect fill="#F1F1F1" height="46.4883" rx="2.5" ry="2.5" style="stroke:#181818;stroke-width:0.5;" width="49.6865" x="174.99" y="66.85"/><rect fill="#F1F1F1" height="10" style="stroke:#181818;stroke-width:0.5;" width="15" x="204.6765" y="71.85"/><rect fill="#F1F1F1" height="2" style="stroke:#181818;stroke-width:0.5;" width="4" x="202.6765" y="73.85"/><rect fill="#F1F1F1" height="2" style="stroke:#181818;stroke-width:0.5;" width="4" x="202.6765" y="77.85"/><text fill="#000000" font-family="sans-serif" font-size="14" lengthAdjust="spacing" textLength="9.6865" x="189.99" y="100.3852">C</text></g><!--entity D--><g class="entity" data-entity="D" data-source-line="4" data-uid="ent0008" id="entity_D"><rect fill="#F1F1F1" height="46.4883" rx="2.5" ry="2.5" style="stroke:#181818;stroke-width:0.5;" width="50.4863" x="259.59" y="66.85"/><rect fill="#F1F1F1" height="10" style="stroke:#181818;stroke-width:0.5;" width="15" x="290.0763" y="71.85"/><rect fill="#F1F1F1" height="2" style="stroke:#181818;stroke-width:0.5;" width="4" x="288.0763" y="73.85"/><rect fill="#F1F1F1" height="2" style="stroke:#181818;stroke-width:0.5;" width="4" x="288.0763" y="77.85"/><text fill="#000000" font-family="sans-serif" font-size="14" lengthAdjust="spacing" textLength="10.4863" x="274.59" y="100.3852">D</text></g><!--entity E--><g class="entity" data-entity="E" data-source-line="5" data-uid="ent0010" id="entity_E"><rect fill="#F1F1F1" height="46.4883" rx="2.5" ry="2.5" style="stroke:#181818;stroke-width:0.5;" width="47.5879" x="345.04" y="66.85"/><rect fill="#F1F1F1" height="10" style="stroke:#181818;stroke-width:0.5;" width="15" x="372.6279" y="71.85"/><rect fill="#F1F1F1" height="2" style="stroke:#181818;stroke-width:0.5;" width="4" x="370.6279" y="73.85"/><rect fill="#F1F1F1" height="2" style="stroke:#181818;stroke-width:0.5;" width="4" x="370.6279" y="77.85"/><text fill="#000000" font-family="sans-serif" font-size="14" lengthAdjust="spacing" textLength="7.5879" x="360.04" y="100.3852">E</text></g><!--entity ...--><g class="entity" data-entity="..." data-source-line="6" data-uid="ent0012" id="entity_..."><rect fill="#F1F1F1" height="46.4883" rx="2.5" ry="2.5" style="stroke:#181818;stroke-width:0.5;" width="53.2891" x="427.19" y="66.85"/><rect fill="#F1F1F1" height="10" style="stroke:#181818;stroke-width:0.5;" width="15" x="460.4791" y="71.85"/><rect fill="#F1F1F1" height="2" style="stroke:#181818;stroke-width:0.5;" width="4" x="458.4791" y="73.85"/><rect fill="#F1F1F1" height="2" style="stroke:#181818;stroke-width:0.5;" width="4" x="458.4791" y="77.85"/><text fill="#000000" font-family="sans-serif" font-size="14" lengthAdjust="spacing" textLength="13.2891" x="442.19" y="100.3852">...</text></g><!--entity Z--><g class="entity" data-entity="Z" data-source-line="7" data-uid="ent0014" id="entity_Z"><rect fill="#F1F1F1" height="46.4883" rx="2.5" ry="2.5" style="stroke:#181818;stroke-width:0.5;" width="48.4629" x="515.6" y="66.85"/><rect fill="#F1F1F1" height="10" style="stroke:#181818;stroke-width:0.5;" width="15" x="544.0629" y="71.85"/><rect fill="#F1F1F1" height="2" style="stroke:#181818;stroke-width:0.5;" width="4" x="542.0629" y="73.85"/><rect fill="#F1F1F1" height="2" style="stroke:#181818;stroke-width:0.5;" width="4" x="542.0629" y="77.85"/><text fill="#000000" font-family="sans-serif" font-size="14" lengthAdjust="spacing" textLength="8.4629" x="530.6" y="100.3852">Z</text></g><!--link A to B--><g class="link" data-entity-1="A" data-entity-2="B" data-source-line="2" data-uid="lnk5" id="link_A_B"><path d="M57.1,90.1 C68.57,90.1 74.04,90.1 85.51,90.1" fill="none" id="A-to-B" style="stroke:#181818;stroke-width:1;"/><polygon fill="#181818" points="91.51,90.1,82.51,86.1,86.51,90.1,82.51,94.1,91.51,90.1" style="stroke:#181818;stroke-width:1;"/></g><!--link B to C--><g class="link" data-entity-1="B" data-entity-2="C" data-source-line="3" data-uid="lnk7" id="link_B_C"><path d="M140.11,90.1 C151.62,90.1 157.13,90.1 168.64,90.1" fill="none" id="B-to-C" style="stroke:#181818;stroke-width:1;"/><polygon fill="#181818" points="174.64,90.1,165.64,86.1,169.64,90.1,165.64,94.1,174.64,90.1" style="stroke:#181818;stroke-width:1;"/></g><!--link C to D--><g class="link" data-entity-1="C" data-entity-2="D" data-source-line="4" data-uid="lnk9" id="link_C_D"><path d="M225.06,90.1 C236.43,90.1 241.79,90.1 253.15,90.1" fill="none" id="C-to-D" style="stroke:#181818;stroke-width:1;"/><polygon fill="#181818" points="259.15,90.1,250.15,86.1,254.15,90.1,250.15,94.1,259.15,90.1" style="stroke:#181818;stroke-width:1;"/></g><!--link D to E--><g class="link" data-entity-1="D" data-entity-2="E" data-source-line="5" data-uid="lnk11" id="link_D_E"><path d="M310.42,90.1 C321.83,90.1 327.24,90.1 338.65,90.1" fill="none" id="D-to-E" style="stroke:#181818;stroke-width:1;"/><polygon fill="#181818" points="344.65,90.1,335.65,86.1,339.65,90.1,335.65,94.1,344.65,90.1" style="stroke:#181818;stroke-width:1;"/></g><!--link E to ...--><g class="link" data-entity-1="E" data-entity-2="..." data-source-line="6" data-uid="lnk13" id="link_E_..."><path d="M393.07,90.1 C404.3,90.1 409.54,90.1 420.77,90.1" fill="none" id="E-to-..." style="stroke:#181818;stroke-width:1;"/><polygon fill="#181818" points="426.77,90.1,417.77,86.1,421.77,90.1,417.77,94.1,426.77,90.1" style="stroke:#181818;stroke-width:1;"/></g><!--link ... to Z--><g class="link" data-entity-1="..." data-entity-2="Z" data-source-line="7" data-uid="lnk15" id="link_..._Z"><path d="M480.7,90.1 C492.25,90.1 497.8,90.1 509.35,90.1" fill="none" id="...-to-Z" style="stroke:#181818;stroke-width:1;"/><polygon fill="#181818" points="515.35,90.1,506.35,86.1,510.35,90.1,506.35,94.1,515.35,90.1" style="stroke:#181818;stroke-width:1;"/></g><!--link Z to A--><g class="link" data-entity-1="Z" data-entity-2="A" data-source-line="8" data-uid="lnk16" id="link_Z_A"><path d="M520.97,66.56 C510.38,55.26 496.13,42.89 480.33,36.85 C399.58,6 172.08,6 91.33,36.85 C75.53,42.89 65.3849,50.884 54.7849,62.184" fill="none" id="Z-to-A" style="stroke:#181818;stroke-width:1;"/><polygon fill="#181818" points="50.68,66.56,59.7547,62.7326,54.1008,62.9133,53.9201,57.2594,50.68,66.56" style="stroke:#181818;stroke-width:1;"/></g><!--SRC=[YoueoaylIioDvOfsZ5NGjLE8TW8odI1CPo3J6S9q0J9T84nN8DCLmjJJqmDoG2IO6mNaH46OZh40]--></g></svg>