<?xml version="1.0" encoding="UTF-8" standalone="no"?><svg xmlns="http://www.w3.org/2000/svg" xmlns:xlink="http://www.w3.org/1999/xlink" contentScriptType="application/ecmascript" contentStyleType="text/css" height="247px" preserveAspectRatio="none" style="width:514px;height:247px;" version="1.1" viewBox="0 0 514 247" width="514px" zoomAndPan="magnify"><defs><filter height="300%" id="f9888bgvjijln" width="300%" x="-1" y="-1"><feGaussianBlur result="blurOut" stdDeviation="2.0"/><feColorMatrix in="blurOut" result="blurOut2" type="matrix" values="0 0 0 0 0 0 0 0 0 0 0 0 0 0 0 0 0 0 .4 0"/><feOffset dx="4.0" dy="4.0" in="blurOut2" result="blurOut3"/><feBlend in="SourceGraphic" in2="blurOut3" mode="normal"/></filter></defs><g><!--cluster character1--><polygon fill="#FFFFFF" filter="url(#f9888bgvjijln)" points="14,77,94,77,101,99.4883,295,99.4883,295,148,14,148,14,77" style="stroke: #000000; stroke-width: 1.5;"/><line style="stroke: #000000; stroke-width: 1.5;" x1="14" x2="101" y1="99.4883" y2="99.4883"/><text fill="#000000" font-family="sans-serif" font-size="14" font-weight="bold" lengthAdjust="spacingAndGlyphs" textLength="74" x="18" y="92.5352">character1</text><!--entity legs--><rect fill="#FEFECE" filter="url(#f9888bgvjijln)" height="36.4883" style="stroke: #A80036; stroke-width: 1.5;" width="48" x="113" y="104"/><rect fill="#FEFECE" height="5" style="stroke: #A80036; stroke-width: 1.5;" width="10" x="108" y="109"/><rect fill="#FEFECE" height="5" style="stroke: #A80036; stroke-width: 1.5;" width="10" x="108" y="130.4883"/><text fill="#000000" font-family="sans-serif" font-size="14" lengthAdjust="spacingAndGlyphs" textLength="28" x="123" y="127.5352">legs</text><!--entity torso--><rect fill="#FEFECE" filter="url(#f9888bgvjijln)" height="36.4883" style="stroke: #A80036; stroke-width: 1.5;" width="56" x="196" y="104"/><rect fill="#FEFECE" height="5" style="stroke: #A80036; stroke-width: 1.5;" width="10" x="191" y="109"/><rect fill="#FEFECE" height="5" style="stroke: #A80036; stroke-width: 1.5;" width="10" x="191" y="130.4883"/><text fill="#000000" font-family="sans-serif" font-size="14" lengthAdjust="spacingAndGlyphs" textLength="36" x="206" y="127.5352">torso</text><!--entity hand--><rect fill="#FEFECE" filter="url(#f9888bgvjijln)" height="36.4883" style="stroke: #A80036; stroke-width: 1.5;" width="55" x="22.5" y="104"/><rect fill="#FEFECE" height="5" style="stroke: #A80036; stroke-width: 1.5;" width="10" x="17.5" y="109"/><rect fill="#FEFECE" height="5" style="stroke: #A80036; stroke-width: 1.5;" width="10" x="17.5" y="130.4883"/><text fill="#000000" font-family="sans-serif" font-size="14" lengthAdjust="spacingAndGlyphs" textLength="35" x="32.5" y="127.5352">hand</text><!--entity shirt--><rect fill="#FEFECE" filter="url(#f9888bgvjijln)" height="36.4883" style="stroke: #A80036; stroke-width: 1.5;" width="51" x="199.5" y="200"/><rect fill="#FEFECE" height="5" style="stroke: #A80036; stroke-width: 1.5;" width="10" x="194.5" y="205"/><rect fill="#FEFECE" height="5" style="stroke: #A80036; stroke-width: 1.5;" width="10" x="194.5" y="226.4883"/><text fill="#000000" font-family="sans-serif" font-size="14" lengthAdjust="spacingAndGlyphs" textLength="31" x="209.5" y="223.5352">shirt</text><!--entity pants--><rect fill="#FEFECE" filter="url(#f9888bgvjijln)" height="36.4883" style="stroke: #A80036; stroke-width: 1.5;" width="58" x="106" y="200"/><rect fill="#FEFECE" height="5" style="stroke: #A80036; stroke-width: 1.5;" width="10" x="101" y="205"/><rect fill="#FEFECE" height="5" style="stroke: #A80036; stroke-width: 1.5;" width="10" x="101" y="226.4883"/><text fill="#000000" font-family="sans-serif" font-size="14" lengthAdjust="spacingAndGlyphs" textLength="38" x="116" y="223.5352">pants</text><!--entity rat bastard sword--><rect fill="#FEFECE" filter="url(#f9888bgvjijln)" height="36.4883" style="stroke: #A80036; stroke-width: 1.5;" width="141" x="362.5" y="8"/><rect fill="#FEFECE" height="5" style="stroke: #A80036; stroke-width: 1.5;" width="10" x="357.5" y="13"/><rect fill="#FEFECE" height="5" style="stroke: #A80036; stroke-width: 1.5;" width="10" x="357.5" y="34.4883"/><text fill="#000000" font-family="sans-serif" font-size="14" lengthAdjust="spacingAndGlyphs" textLength="121" x="372.5" y="31.5352">rat bastard sword</text><!--entity program--><rect fill="#FEFECE" filter="url(#f9888bgvjijln)" height="36.4883" style="stroke: #A80036; stroke-width: 1.5;" width="80" x="247" y="8"/><rect fill="#FEFECE" height="5" style="stroke: #A80036; stroke-width: 1.5;" width="10" x="242" y="13"/><rect fill="#FEFECE" height="5" style="stroke: #A80036; stroke-width: 1.5;" width="10" x="242" y="34.4883"/><text fill="#000000" font-family="sans-serif" font-size="14" lengthAdjust="spacingAndGlyphs" textLength="60" x="257" y="31.5352">program</text><!--link program to character1--><path d="M287,44.0569 C287,50.5746 287,58.3187 287,66.3562 C287,68.3656 287,70.3933 287,72.4248 C287,73.4406 287,74.4573 287,75.4731 C287,75.981 287,92.981 287,93.4883 " fill="none" id="program-character1" style="stroke: #A80036; stroke-width: 1.0;"/><polygon fill="#A80036" points="287,76.9959,291,67.9959,287,71.9959,283,67.9959,287,76.9959" style="stroke: #A80036; stroke-width: 1.0;"/><!--link legs to pants--><path d="M136.6238,140.0569 C136.3018,155.5126 135.8362,177.8647 135.486,194.6731 " fill="none" id="legs-pants" style="stroke: #A80036; stroke-width: 1.0;"/><polygon fill="#A80036" points="135.3813,199.6977,139.5681,190.7831,135.4856,194.6988,131.5699,190.6162,135.3813,199.6977" style="stroke: #A80036; stroke-width: 1.0;"/><!--link torso to shirt--><path d="M224.1881,140.0569 C224.3491,155.5126 224.5819,177.8647 224.757,194.6731 " fill="none" id="torso-shirt" style="stroke: #A80036; stroke-width: 1.0;"/><polygon fill="#A80036" points="224.8094,199.6977,228.7153,190.6565,224.7573,194.698,220.7158,190.7399,224.8094,199.6977" style="stroke: #A80036; stroke-width: 1.0;"/><!--
@startuml
[shirt]
[pants]
[rat bastard sword]

[program] - -> [character1]
package character1 {
  [legs] - -> [pants]
  [torso] - -> [shirt]
  [hand]
}

@enduml

PlantUML version 1.2018.01(Sun Jan 28 10:08:22 PST 2018)
(GPL source distribution)
Java Runtime: Java(TM) SE Runtime Environment
JVM: Java HotSpot(TM) 64-Bit Server VM
Java Version: 1.8.0_121-b13
Operating System: Mac OS X
OS Version: 10.13.3
Default Encoding: UTF-8
Language: en
Country: US
--></g></svg>