<?xml version="1.0" encoding="UTF-8" standalone="no"?><svg xmlns="http://www.w3.org/2000/svg" xmlns:xlink="http://www.w3.org/1999/xlink" contentStyleType="text/css" height="344px" preserveAspectRatio="none" style="width:414px;height:344px;background:#FFFFFF;" version="1.1" viewBox="0 0 414 344" width="414px" zoomAndPan="magnify"><defs/><g><line style="stroke:#181818;stroke-width:0.5;stroke-dasharray:5.0,5.0;" x1="27" x2="27" y1="36.4883" y2="308.9043"/><line style="stroke:#181818;stroke-width:0.5;stroke-dasharray:5.0,5.0;" x1="207" x2="207" y1="36.4883" y2="308.9043"/><line style="stroke:#181818;stroke-width:0.5;stroke-dasharray:5.0,5.0;" x1="353.5" x2="353.5" y1="36.4883" y2="308.9043"/><rect fill="#E2E2F0" height="30.4883" rx="2.5" ry="2.5" style="stroke:#181818;stroke-width:0.5;" width="45" x="5" y="5"/><text fill="#000000" font-family="sans-serif" font-size="14" lengthAdjust="spacing" textLength="31" x="12" y="25.5352">User</text><rect fill="#E2E2F0" height="30.4883" rx="2.5" ry="2.5" style="stroke:#181818;stroke-width:0.5;" width="45" x="5" y="307.9043"/><text fill="#000000" font-family="sans-serif" font-size="14" lengthAdjust="spacing" textLength="31" x="12" y="328.4395">User</text><rect fill="#E2E2F0" height="30.4883" rx="2.5" ry="2.5" style="stroke:#181818;stroke-width:0.5;" width="69" x="173" y="5"/><text fill="#000000" font-family="sans-serif" font-size="14" lengthAdjust="spacing" textLength="55" x="180" y="25.5352">Browser</text><rect fill="#E2E2F0" height="30.4883" rx="2.5" ry="2.5" style="stroke:#181818;stroke-width:0.5;" width="69" x="173" y="307.9043"/><text fill="#000000" font-family="sans-serif" font-size="14" lengthAdjust="spacing" textLength="55" x="180" y="328.4395">Browser</text><rect fill="#E2E2F0" height="30.4883" rx="2.5" ry="2.5" style="stroke:#181818;stroke-width:0.5;" width="110" x="298.5" y="5"/><text fill="#000000" font-family="sans-serif" font-size="14" lengthAdjust="spacing" textLength="96" x="305.5" y="25.5352">Google Server</text><rect fill="#E2E2F0" height="30.4883" rx="2.5" ry="2.5" style="stroke:#181818;stroke-width:0.5;" width="110" x="298.5" y="307.9043"/><text fill="#000000" font-family="sans-serif" font-size="14" lengthAdjust="spacing" textLength="96" x="305.5" y="328.4395">Google Server</text><polygon fill="#181818" points="195.5,63.7988,205.5,67.7988,195.5,71.7988,199.5,67.7988" style="stroke:#181818;stroke-width:1.0;"/><line style="stroke:#181818;stroke-width:1.0;" x1="27.5" x2="201.5" y1="67.7988" y2="67.7988"/><text fill="#000000" font-family="sans-serif" font-size="13" lengthAdjust="spacing" textLength="156" x="34.5" y="63.0566">Go to http://google.com</text><polygon fill="#181818" points="341.5,108.4199,351.5,112.4199,341.5,116.4199,345.5,112.4199" style="stroke:#181818;stroke-width:1.0;"/><line style="stroke:#181818;stroke-width:1.0;" x1="207.5" x2="347.5" y1="112.4199" y2="112.4199"/><text fill="#000000" font-family="sans-serif" font-size="13" lengthAdjust="spacing" textLength="98" x="214.5" y="92.3672">Send request to</text><text fill="#000000" font-family="sans-serif" font-size="13" lengthAdjust="spacing" textLength="93" x="214.5" y="107.6777">Google servers</text><polygon fill="#181818" points="218.5,153.041,208.5,157.041,218.5,161.041,214.5,157.041" style="stroke:#181818;stroke-width:1.0;"/><line style="stroke:#181818;stroke-width:1.0;stroke-dasharray:2.0,2.0;" x1="212.5" x2="352.5" y1="157.041" y2="157.041"/><text fill="#000000" font-family="sans-serif" font-size="13" lengthAdjust="spacing" textLength="91" x="224.5" y="136.9883">Send response</text><text fill="#000000" font-family="sans-serif" font-size="13" lengthAdjust="spacing" textLength="101" x="224.5" y="152.2988">with HTML page</text><polygon fill="#181818" points="341.5,197.6621,351.5,201.6621,341.5,205.6621,345.5,201.6621" style="stroke:#181818;stroke-width:1.0;"/><line style="stroke:#181818;stroke-width:1.0;" x1="207.5" x2="347.5" y1="201.6621" y2="201.6621"/><text fill="#000000" font-family="sans-serif" font-size="13" lengthAdjust="spacing" textLength="103" x="214.5" y="181.6094">Send request for</text><text fill="#000000" font-family="sans-serif" font-size="13" lengthAdjust="spacing" textLength="122" x="214.5" y="196.9199">CSS/JavaScript files</text><polygon fill="#181818" points="218.5,242.2832,208.5,246.2832,218.5,250.2832,214.5,246.2832" style="stroke:#181818;stroke-width:1.0;"/><line style="stroke:#181818;stroke-width:1.0;stroke-dasharray:2.0,2.0;" x1="212.5" x2="352.5" y1="246.2832" y2="246.2832"/><text fill="#000000" font-family="sans-serif" font-size="13" lengthAdjust="spacing" textLength="98" x="224.5" y="226.2305">Send responses</text><text fill="#000000" font-family="sans-serif" font-size="13" lengthAdjust="spacing" textLength="115" x="224.5" y="241.541">for files requested</text><polygon fill="#181818" points="38.5,286.9043,28.5,290.9043,38.5,294.9043,34.5,290.9043" style="stroke:#181818;stroke-width:1.0;"/><line style="stroke:#181818;stroke-width:1.0;stroke-dasharray:2.0,2.0;" x1="32.5" x2="206.5" y1="290.9043" y2="290.9043"/><text fill="#000000" font-family="sans-serif" font-size="13" lengthAdjust="spacing" textLength="133" x="44.5" y="270.8516">Show pretty webpage</text><text fill="#000000" font-family="sans-serif" font-size="13" lengthAdjust="spacing" textLength="44" x="44.5" y="286.1621">to user</text><!--MD5=[8d83584bedd686784e193f32689f2ec8]
@startuml
User -> Browser: Go to http://google.com
Browser -> "Google Server": Send request to\nGoogle servers
"Google Server" - -> Browser: Send response\nwith HTML page
Browser -> "Google Server": Send request for\nCSS/JavaScript files
"Google Server" - -> Browser: Send responses\nfor files requested
Browser - -> User: Show pretty webpage\nto user
@enduml

PlantUML version 1.2022.5(Sat Apr 30 03:55:52 PDT 2022)
(GPL source distribution)
Java Runtime: OpenJDK Runtime Environment
JVM: OpenJDK 64-Bit Server VM
Default Encoding: UTF-8
Language: en
Country: US
--></g></svg>