<?xml version="1.0" encoding="UTF-8" standalone="no"?><svg xmlns="http://www.w3.org/2000/svg" xmlns:xlink="http://www.w3.org/1999/xlink" contentScriptType="application/ecmascript" contentStyleType="text/css" height="545px" preserveAspectRatio="none" style="width:433px;height:545px;background:#000000;" version="1.1" viewBox="0 0 433 545" width="433px" zoomAndPan="magnify"><defs><filter height="300%" id="f1phyxy3ugj34a" width="300%" x="-1" y="-1"><feGaussianBlur result="blurOut" stdDeviation="2.0"/><feColorMatrix in="blurOut" result="blurOut2" type="matrix" values="0 0 0 0 0 0 0 0 0 0 0 0 0 0 0 0 0 0 .4 0"/><feOffset dx="4.0" dy="4.0" in="blurOut2" result="blurOut3"/><feBlend in="SourceGraphic" in2="blurOut3" mode="normal"/></filter></defs><g><!--entity lmic--><ellipse cx="39" cy="37" fill="#070707" filter="url(#f1phyxy3ugj34a)" rx="8" ry="8" style="stroke: #C7C7C7; stroke-width: 2.0;"/><text fill="#FFFFFF" font-family="sans-serif" font-size="14" lengthAdjust="spacingAndGlyphs" textLength="50" x="14" y="67.5352">left mic</text><!--entity rmic--><ellipse cx="145" cy="37" fill="#070707" filter="url(#f1phyxy3ugj34a)" rx="8" ry="8" style="stroke: #C7C7C7; stroke-width: 2.0;"/><text fill="#FFFFFF" font-family="sans-serif" font-size="14" lengthAdjust="spacingAndGlyphs" textLength="61" x="114.5" y="67.5352">right mic</text><!--entity lhead--><ellipse cx="240" cy="501" fill="#070707" filter="url(#f1phyxy3ugj34a)" rx="8" ry="8" style="stroke: #C7C7C7; stroke-width: 2.0;"/><text fill="#FFFFFF" font-family="sans-serif" font-size="14" lengthAdjust="spacingAndGlyphs" textLength="80" x="200" y="531.5352">left headset</text><!--entity rhead--><ellipse cx="376" cy="501" fill="#070707" filter="url(#f1phyxy3ugj34a)" rx="8" ry="8" style="stroke: #C7C7C7; stroke-width: 2.0;"/><text fill="#FFFFFF" font-family="sans-serif" font-size="14" lengthAdjust="spacingAndGlyphs" textLength="91" x="330.5" y="531.5352">right headset</text><!--entity cpu--><ellipse cx="176" cy="269" fill="#070707" filter="url(#f1phyxy3ugj34a)" rx="8" ry="8" style="stroke: #C7C7C7; stroke-width: 2.0;"/><text fill="#FFFFFF" font-family="sans-serif" font-size="14" lengthAdjust="spacingAndGlyphs" textLength="66" x="143" y="299.5352">computer</text><!--entity thunderbolt-mixer--><rect fill="#070707" filter="url(#f1phyxy3ugj34a)" height="36.4883" style="stroke: #C7C7C7; stroke-width: 1.5;" width="150" x="17" y="127"/><rect fill="#070707" height="5" style="stroke: #C7C7C7; stroke-width: 1.5;" width="10" x="12" y="132"/><rect fill="#070707" height="5" style="stroke: #C7C7C7; stroke-width: 1.5;" width="10" x="12" y="153.4883"/><text fill="#FFFFFF" font-family="sans-serif" font-size="14" lengthAdjust="spacingAndGlyphs" textLength="130" x="27" y="150.5352">thunderbolt-mixer</text><!--entity 4-to-1-mixer--><rect fill="#070707" filter="url(#f1phyxy3ugj34a)" height="36.4883" style="stroke: #C7C7C7; stroke-width: 1.5;" width="116" x="34" y="375"/><rect fill="#070707" height="5" style="stroke: #C7C7C7; stroke-width: 1.5;" width="10" x="29" y="380"/><rect fill="#070707" height="5" style="stroke: #C7C7C7; stroke-width: 1.5;" width="10" x="29" y="401.4883"/><text fill="#FFFFFF" font-family="sans-serif" font-size="14" lengthAdjust="spacingAndGlyphs" textLength="96" x="44" y="398.5352">4-to-1-mixer</text><!--entity amp--><rect fill="#070707" filter="url(#f1phyxy3ugj34a)" height="36.4883" style="stroke: #C7C7C7; stroke-width: 1.5;" width="50" x="283" y="375"/><rect fill="#070707" height="5" style="stroke: #C7C7C7; stroke-width: 1.5;" width="10" x="278" y="380"/><rect fill="#070707" height="5" style="stroke: #C7C7C7; stroke-width: 1.5;" width="10" x="278" y="401.4883"/><text fill="#FFFFFF" font-family="sans-serif" font-size="14" lengthAdjust="spacingAndGlyphs" textLength="30" x="293" y="398.5352">amp</text><!--link lmic to thunderbolt-mixer--><path d="M43.5188,46.208 C51.7327,62.9459 69.3304,98.8054 80.9108,122.4031 " fill="none" id="lmic-thunderbolt-mixer" style="stroke: #C7C7C7; stroke-width: 1.0;"/><polygon fill="#C7C7C7" points="83.1421,126.9498,82.7679,117.1081,80.9393,122.4612,75.5862,120.6325,83.1421,126.9498" style="stroke: #C7C7C7; stroke-width: 1.0;"/><!--link rmic to thunderbolt-mixer--><path d="M140.4812,46.208 C132.2673,62.9459 114.6696,98.8054 103.0892,122.4031 " fill="none" id="rmic-thunderbolt-mixer" style="stroke: #C7C7C7; stroke-width: 1.0;"/><polygon fill="#C7C7C7" points="100.8579,126.9498,108.4138,120.6325,103.0607,122.4612,101.2321,117.1081,100.8579,126.9498" style="stroke: #C7C7C7; stroke-width: 1.0;"/><!--link thunderbolt-mixer to 4-to-1-mixer--><path d="M89.0183,163.1477 C86.0471,182.2186 81.6908,213.1221 80,240 C78.3816,265.7269 78.3816,272.2731 80,298 C81.5455,322.5681 85.3181,350.4996 88.2242,369.6835 " fill="none" id="thunderbolt-mixer-4-to-1-mixer" style="stroke: #C7C7C7; stroke-width: 1.0;"/><polygon fill="#C7C7C7" points="89.0183,374.8523,91.6052,365.3493,88.259,369.9103,83.698,366.5641,89.0183,374.8523" style="stroke: #C7C7C7; stroke-width: 1.0;"/><text fill="#FFFFFF" font-family="sans-serif" font-size="13" lengthAdjust="spacingAndGlyphs" textLength="35" x="81" y="274.0684">audio</text><!--link thunderbolt-mixer to cpu--><path d="M104.2143,163.0307 C121.2777,188.2195 151.8547,233.357 166.9965,255.7091 " fill="none" id="thunderbolt-mixer-cpu" style="stroke: #C7C7C7; stroke-width: 1.0;"/><polygon fill="#C7C7C7" points="169.8105,259.8631,168.0746,250.1684,167.0063,255.7235,161.4512,254.6552,169.8105,259.8631" style="stroke: #C7C7C7; stroke-width: 1.0;"/><text fill="#FFFFFF" font-family="sans-serif" font-size="13" lengthAdjust="spacingAndGlyphs" textLength="74" x="135" y="206.5684">thunderbolt</text><!--link cpu to 4-to-1-mixer--><path d="M169.6863,278.3202 C156.5033,297.7808 125.7345,343.2015 107.1185,370.6823 " fill="none" id="cpu-4-to-1-mixer" style="stroke: #C7C7C7; stroke-width: 1.0;"/><polygon fill="#C7C7C7" points="104.2396,374.932,112.599,369.7242,107.0439,370.7924,105.9757,365.2374,104.2396,374.932" style="stroke: #C7C7C7; stroke-width: 1.0;"/><text fill="#FFFFFF" font-family="sans-serif" font-size="13" lengthAdjust="spacingAndGlyphs" textLength="123" x="135" y="341.5684">headphone to input</text><!--link 4-to-1-mixer to amp--><path d="M150.1682,393 C191.3251,393 244.848,393 277.7933,393 " fill="none" id="4-to-1-mixer-amp" style="stroke: #C7C7C7; stroke-width: 1.0;"/><polygon fill="#C7C7C7" points="282.8991,393,273.8991,389,277.8991,393,273.8991,397,282.8991,393" style="stroke: #C7C7C7; stroke-width: 1.0;"/><text fill="#FFFFFF" font-family="sans-serif" font-size="13" lengthAdjust="spacingAndGlyphs" textLength="96" x="168.5" y="386.5684">output to input</text><!--link amp to lhead--><path d="M296.4647,411.3207 C282.9112,432.8469 260.7371,468.0646 248.602,487.3379 " fill="none" id="amp-lhead" style="stroke: #C7C7C7; stroke-width: 1.0;"/><polygon fill="#C7C7C7" points="245.7445,491.8763,253.9248,486.3916,248.4086,487.6452,247.155,482.129,245.7445,491.8763" style="stroke: #C7C7C7; stroke-width: 1.0;"/><!--link amp to rhead--><path d="M319.5353,411.3207 C333.0888,432.8469 355.2629,468.0646 367.398,487.3379 " fill="none" id="amp-rhead" style="stroke: #C7C7C7; stroke-width: 1.0;"/><polygon fill="#C7C7C7" points="370.2555,491.8763,368.845,482.129,367.5914,487.6452,362.0752,486.3916,370.2555,491.8763" style="stroke: #C7C7C7; stroke-width: 1.0;"/><!--
@startuml
skinparam monochrome reverse

interface "left mic" as lmic
interface "right mic" as rmic
interface "left headset" as lhead
interface "right headset" as rhead
interface "computer" as cpu

[thunderbolt-mixer]
[4-to-1-mixer]
[amp]

lmic - -> [thunderbolt-mixer]
rmic - -> [thunderbolt-mixer]

[thunderbolt-mixer] -> [4-to-1-mixer] : audio
[thunderbolt-mixer] - -> cpu : thunderbolt
cpu - -> [4-to-1-mixer] : headphone to input
[4-to-1-mixer] -> [amp] : output to input
[amp] - -> lhead
[amp] - -> rhead

@enduml

PlantUML version 1.2018.01(Sun Jan 28 10:08:22 PST 2018)
(GPL source distribution)
Java Runtime: Java(TM) SE Runtime Environment
JVM: Java HotSpot(TM) 64-Bit Server VM
Java Version: 1.8.0_121-b13
Operating System: Mac OS X
OS Version: 10.13.3
Default Encoding: UTF-8
Language: en
Country: US
--></g></svg>